<?xml version="1.0" encoding="UTF-8" standalone="no"?>
<!-- Generator: Adobe Illustrator 15.0.0, SVG Export Plug-In . SVG Version: 6.00 Build 0)  -->

<svg
   xmlns:dc="http://purl.org/dc/elements/1.1/"
   xmlns:cc="http://creativecommons.org/ns#"
   xmlns:rdf="http://www.w3.org/1999/02/22-rdf-syntax-ns#"
   xmlns:svg="http://www.w3.org/2000/svg"
   xmlns="http://www.w3.org/2000/svg"
   xmlns:sodipodi="http://sodipodi.sourceforge.net/DTD/sodipodi-0.dtd"
   xmlns:inkscape="http://www.inkscape.org/namespaces/inkscape"
   version="1.1"
   id="Capa_1"
   x="0px"
   y="0px"
   width="595.28px"
   height="184.25px"
   viewBox="0 0 595.28 184.25"
   enable-background="new 0 0 595.28 184.25"
   xml:space="preserve"
   inkscape:version="0.91 r13725"
   sodipodi:docname="zenpark.svg"><metadata
     id="metadata155"><rdf:RDF><cc:Work
         rdf:about=""><dc:format>image/svg+xml</dc:format><dc:type
           rdf:resource="http://purl.org/dc/dcmitype/StillImage" /></cc:Work></rdf:RDF></metadata><defs
     id="defs153"><linearGradient
       id="SVGID_4_"
       gradientUnits="userSpaceOnUse"
       x1="84.627403"
       y1="29.1938"
       x2="84.627403"
       y2="49.109901"><stop
         offset="0"
         style="stop-color:#9EA4A7"
         id="stop115" /><stop
         offset="1"
         style="stop-color:#B5B5B5"
         id="stop117" /></linearGradient><linearGradient
       id="SVGID_5_"
       gradientUnits="userSpaceOnUse"
       x1="84.627403"
       y1="176.55859"
       x2="84.627403"
       y2="7.6914001"><stop
         offset="0"
         style="stop-color:#E31E74"
         id="stop122" /><stop
         offset="0.4919"
         style="stop-color:#E32075"
         id="stop124" /><stop
         offset="0.6691"
         style="stop-color:#E42777"
         id="stop126" /><stop
         offset="0.7954"
         style="stop-color:#E5327C"
         id="stop128" /><stop
         offset="0.8975"
         style="stop-color:#E64382"
         id="stop130" /><stop
         offset="0.9839"
         style="stop-color:#E8598A"
         id="stop132" /><stop
         offset="1"
         style="stop-color:#E85E8C"
         id="stop134" /></linearGradient><linearGradient
       id="SVGID_6_"
       gradientUnits="userSpaceOnUse"
       x1="84.627403"
       y1="174.8965"
       x2="84.627403"
       y2="9.3593998"
       spreadMethod="pad"><stop
         offset="0"
         style="stop-color:#E31E74"
         id="stop145" /><stop
         offset="1"
         style="stop-color:#E85E8C"
         id="stop147" /></linearGradient></defs><sodipodi:namedview
     pagecolor="#ffffff"
     bordercolor="#666666"
     borderopacity="1"
     objecttolerance="10"
     gridtolerance="10"
     guidetolerance="10"
     inkscape:pageopacity="0"
     inkscape:pageshadow="2"
     inkscape:window-width="960"
     inkscape:window-height="981"
     id="namedview151"
     showgrid="false"
     inkscape:zoom="0.37298669"
     inkscape:cx="264.11562"
     inkscape:cy="-193.11584"
     inkscape:window-x="0"
     inkscape:window-y="24"
     inkscape:window-maximized="0"
     inkscape:current-layer="Capa_1" /><path
     style="fill:#757575;fill-opacity:1"
     inkscape:connector-curvature="0"
     id="path9"
     d="m 236.622,89.057 0,13.158 -51.941,0 27.976,-41.578 -23.63,0 0,-13.153 49.381,0 -27.755,41.573 25.969,0 z" /><path
     style="fill:#757575;fill-opacity:1"
     inkscape:connector-curvature="0"
     id="path11"
     d="m 256.565,77.358 c 0,6.91 2.674,14.713 10.813,14.713 5.126,0 8.358,-3.124 10.479,-7.47 l 14.376,2.341 c -3.79,10.925 -13.374,17.054 -24.854,17.054 -16.945,0 -27.311,-12.042 -27.311,-28.648 0,-16.608 8.807,-29.646 26.531,-29.646 17.944,0 25.967,13.262 25.967,29.76 l 0,1.896 -36.001,0 z m 21.291,-9.697 c -0.781,-5.577 -4.351,-11.039 -10.369,-11.039 -6.241,0 -9.7,5.355 -10.479,11.039 l 20.848,0 z" /><path
     style="fill:#757575;fill-opacity:1"
     inkscape:connector-curvature="0"
     id="path13"
     d="m 315.411,52.499 0.223,0 c 3.233,-4.904 8.691,-6.797 14.267,-6.797 14.716,0 18.947,10.367 18.947,23.072 l 0,33.441 -15.604,0 0,-28.986 c 0,-6.57 0.336,-15.05 -8.47,-15.05 -9.251,0 -9.363,10.373 -9.363,16.944 l 0,27.091 -15.606,0 0,-54.73 15.606,0 0,5.015 z" /><path
     style="fill:#83898e"
     inkscape:connector-curvature="0"
     id="path15"
     d="m 375.589,52.499 c 3.566,-4.232 9.368,-6.797 15.163,-6.797 15.487,0 24.962,14.489 24.962,28.866 0,14.938 -9.139,29.428 -25.298,29.428 -5.575,0 -11.483,-2.455 -14.604,-6.906 l -0.223,0 0,34.322 -15.604,0 0,-83.928 15.604,0 0,5.015 z m 24.299,22.289 c 0,-7.354 -4.904,-15.269 -12.927,-15.269 -8.028,0 -12.931,7.915 -12.931,15.269 0,7.359 4.902,15.385 12.931,15.385 8.022,-0.001 12.927,-8.026 12.927,-15.385 z" /><path
     style="fill:#83898e"
     inkscape:connector-curvature="0"
     id="path17"
     d="m 474.675,102.215 -15.387,0 0,-5.016 -0.22,0 c -3.347,4.342 -9.144,6.797 -14.829,6.797 -16.047,0 -25.189,-14.603 -25.189,-29.428 0,-14.489 9.255,-28.866 24.97,-28.866 5.686,0 11.479,2.451 15.269,6.91 l 0,-5.128 15.387,0 0,54.731 z M 460.851,74.788 c 0,-7.354 -5.016,-15.269 -13.041,-15.269 -8.025,0 -12.931,7.915 -12.931,15.269 0,7.359 4.905,15.385 12.931,15.385 8.026,0 13.041,-8.026 13.041,-15.385 z" /><path
     style="fill:#83898e"
     inkscape:connector-curvature="0"
     id="path19"
     d="m 501.524,53.167 0.224,0 c 3.12,-4.795 7.802,-7.466 13.598,-7.466 2.229,0 4.461,0.553 6.467,1.333 l -1.896,14.496 c -1.895,-1.34 -4.126,-2.012 -6.463,-2.012 -10.817,0 -11.93,9.583 -11.93,18.062 l 0,24.633 -15.604,0 0,-54.729 15.604,0 0,5.683 z" /><path
     style="fill:#83898e"
     inkscape:connector-curvature="0"
     id="path21"
     d="m 542.426,67.543 0.223,0 16.387,-20.06 20.282,0 -23.072,24.077 24.858,30.655 -20.51,0 -17.946,-23.295 -0.223,0 0,23.295 -15.605,0 0,-94.524 15.605,0 0,59.852 z" /><g
     id="g23"><path
       d="m 193.573,161.904 6.849,-15.91 1.922,0 -8.811,20.338 -8.852,-20.338 1.919,0 6.973,15.91 z"
       id="path25"
       inkscape:connector-curvature="0"
       style="fill:#83898e" /><path
       d="m 224.052,155.639 c 0,5.719 -4.469,10.066 -10.148,10.066 -5.556,0 -10.022,-4.555 -10.022,-10.025 0,-5.555 4.426,-10.102 10.022,-10.102 5.679,0 10.148,4.344 10.148,10.061 z m -18.291,0.041 c 0,4.385 3.465,8.268 8.018,8.268 4.716,0 8.393,-3.59 8.393,-8.268 0,-4.756 -3.633,-8.348 -8.393,-8.348 -4.593,0 -8.018,3.879 -8.018,8.348 z"
       id="path27"
       inkscape:connector-curvature="0"
       style="fill:#83898e" /><path
       d="m 230.686,165.283 -1.881,0 0,-17.535 -2.129,0 0,-1.754 2.129,0 0,-6.893 1.881,0 0,6.893 3.38,0 0,1.754 -3.38,0 0,17.535 z"
       id="path29"
       inkscape:connector-curvature="0"
       style="fill:#83898e" /><path
       d="m 239.199,148.498 0.086,0 c 0.749,-1.752 2.129,-2.92 4.174,-2.92 0.752,0 1.378,0.164 2.045,0.461 l -1.001,1.668 c -0.458,-0.25 -0.833,-0.375 -1.335,-0.375 -4.222,0 -3.969,5.258 -3.969,8.1 l 0,9.852 -1.878,0 0,-19.289 1.878,0 0,2.503 z"
       id="path31"
       inkscape:connector-curvature="0"
       style="fill:#83898e" /><path
       d="m 248.929,155.807 c -0.127,4.885 3.255,8.141 7.724,8.141 3.004,0 5.429,-1.789 6.808,-4.383 l 1.586,0.918 c -1.754,3.344 -4.845,5.223 -8.643,5.223 -5.723,0 -9.354,-4.639 -9.354,-10.107 0,-5.389 3.715,-10.02 9.354,-10.02 5.845,0 9.312,4.674 9.27,10.229 l -16.745,0 z m 14.863,-1.754 c -0.456,-3.549 -3.379,-6.721 -7.351,-6.721 -3.924,0 -7.179,3.088 -7.512,6.721 l 14.863,0 z"
       id="path33"
       inkscape:connector-curvature="0"
       style="fill:#83898e" /><path
       d="m 285.039,149.459 0.084,0 c 1.418,-2.469 4.508,-3.881 7.348,-3.881 5.888,0 9.52,4.592 9.52,10.229 0,5.637 -3.632,9.898 -9.436,9.898 -2.965,0 -5.846,-1.297 -7.432,-3.762 l -0.084,0 0,14.615 -1.876,0 0,-30.564 1.876,0 0,3.465 z m -0.126,6.6 c 0,4.506 3.049,7.889 7.685,7.889 4.507,0 7.516,-3.799 7.516,-8.102 0,-4.424 -2.882,-8.514 -7.6,-8.514 -4.928,0 -7.601,4.09 -7.601,8.727 z"
       id="path35"
       inkscape:connector-curvature="0"
       style="fill:#83898e" /><path
       d="m 308.412,165.283 -1.877,0 0,-34.449 1.877,0 0,34.449 z"
       id="path37"
       inkscape:connector-curvature="0"
       style="fill:#83898e" /><path
       d="m 331.797,165.283 -1.878,0 0,-3.467 -0.085,0 c -1.416,2.469 -4.507,3.889 -7.352,3.889 -5.847,0 -9.514,-4.555 -9.514,-10.189 0,-5.637 3.629,-9.938 9.436,-9.938 2.965,0 5.801,1.336 7.43,3.756 l 0.085,0 0,-3.34 1.878,0 0,19.289 z m -16.953,-9.767 c 0,4.422 2.924,8.432 7.6,8.432 4.928,0 7.6,-4.01 7.6,-8.641 0,-4.467 -3.048,-7.975 -7.724,-7.975 -4.426,0 -7.476,4.01 -7.476,8.184 z"
       id="path39"
       inkscape:connector-curvature="0"
       style="fill:#83898e" /><path
       d="m 353.004,150.461 c -1.838,-2.004 -4.053,-3.129 -6.808,-3.129 -4.552,0 -7.978,3.879 -7.978,8.266 0,4.383 3.384,8.35 7.936,8.35 2.755,0 5.341,-1.338 7.101,-3.465 l 0,2.549 c -1.963,1.709 -4.427,2.674 -7.016,2.674 -5.721,0 -9.899,-4.467 -9.899,-10.107 0,-5.596 4.262,-10.02 9.941,-10.02 2.506,0 4.801,0.752 6.723,2.377 l 0,2.505 z"
       id="path41"
       inkscape:connector-curvature="0"
       style="fill:#83898e" /><path
       d="m 358.135,155.807 c -0.127,4.885 3.252,8.141 7.725,8.141 3.008,0 5.429,-1.789 6.807,-4.383 l 1.585,0.918 c -1.75,3.344 -4.845,5.223 -8.641,5.223 -5.724,0 -9.357,-4.639 -9.357,-10.107 0,-5.389 3.719,-10.02 9.357,-10.02 5.843,0 9.31,4.674 9.268,10.229 l -16.744,0 z m 14.864,-1.754 c -0.458,-3.549 -3.382,-6.721 -7.35,-6.721 -3.925,0 -7.179,3.088 -7.515,6.721 l 14.865,0 z"
       id="path43"
       inkscape:connector-curvature="0"
       style="fill:#83898e" /><path
       d="m 398.253,161.904 6.85,-15.91 1.92,0 -8.809,20.338 -8.853,-20.338 1.92,0 6.972,15.91 z"
       id="path45"
       inkscape:connector-curvature="0"
       style="fill:#83898e" /><path
       d="m 428.732,155.639 c 0,5.719 -4.47,10.066 -10.15,10.066 -5.553,0 -10.021,-4.555 -10.021,-10.025 0,-5.555 4.428,-10.102 10.021,-10.102 5.681,0 10.15,4.344 10.15,10.061 z m -18.292,0.041 c 0,4.385 3.469,8.268 8.02,8.268 4.717,0 8.391,-3.59 8.391,-8.268 0,-4.756 -3.629,-8.348 -8.391,-8.348 -4.595,0 -8.02,3.879 -8.02,8.348 z"
       id="path47"
       inkscape:connector-curvature="0"
       style="fill:#83898e" /><path
       d="m 446.85,145.994 0,11.568 c 0,1.959 0.041,3.922 -1.172,5.553 -1.334,1.75 -3.588,2.59 -5.758,2.59 -2.173,0 -4.429,-0.84 -5.766,-2.59 -1.212,-1.631 -1.168,-3.594 -1.168,-5.553 l 0,-11.568 1.876,0 0,10.898 c 0,3.717 0.421,7.055 5.058,7.055 4.631,0 5.051,-3.338 5.051,-7.055 l 0,-10.898 1.879,0 z"
       id="path49"
       inkscape:connector-curvature="0"
       style="fill:#83898e" /><path
       d="m 461.08,149.504 c -0.624,-1.34 -1.876,-2.172 -3.383,-2.172 -1.629,0 -3.298,1.334 -3.298,3 0,4.641 9.396,2.387 9.396,9.357 0,3.555 -2.757,6.016 -6.223,6.016 -3.215,0 -5.844,-1.967 -6.639,-5.096 l 1.836,-0.582 c 0.713,2.295 2.257,3.92 4.803,3.92 2.424,0 4.343,-1.916 4.343,-4.342 0,-2.379 -1.837,-3.133 -3.759,-3.799 -2.629,-0.961 -5.631,-2.09 -5.631,-5.346 0,-2.924 2.459,-4.883 5.256,-4.883 1.967,0 4.095,1.287 4.928,3.088 l -1.629,0.839 z"
       id="path51"
       inkscape:connector-curvature="0"
       style="fill:#83898e" /><path
       d="m 498.531,165.283 -1.879,0 0,-3.467 -0.087,0 c -1.417,2.469 -4.509,3.889 -7.347,3.889 -5.847,0 -9.523,-4.555 -9.523,-10.189 0,-5.637 3.635,-9.938 9.439,-9.938 2.961,0 5.803,1.336 7.431,3.756 l 0.087,0 0,-3.34 1.879,0 0,19.289 z m -16.957,-9.767 c 0,4.422 2.927,8.432 7.603,8.432 4.925,0 7.601,-4.01 7.601,-8.641 0,-4.467 -3.052,-7.975 -7.728,-7.975 -4.426,0 -7.476,4.01 -7.476,8.184 z"
       id="path53"
       inkscape:connector-curvature="0"
       style="fill:#83898e" /><path
       d="m 507.044,165.283 -1.878,0 0,-17.535 -2.129,0 0,-1.754 2.129,0 0,-6.893 1.878,0 0,6.893 3.38,0 0,1.754 -3.38,0 0,17.535 z"
       id="path55"
       inkscape:connector-curvature="0"
       style="fill:#83898e" /><path
       d="m 515.765,165.283 -1.875,0 0,-17.535 -2.13,0 0,-1.754 2.13,0 0,-6.893 1.875,0 0,6.893 3.383,0 0,1.754 -3.383,0 0,17.535 z"
       id="path57"
       inkscape:connector-curvature="0"
       style="fill:#83898e" /><path
       d="m 522.407,155.807 c -0.127,4.885 3.252,8.141 7.722,8.141 3.006,0 5.432,-1.789 6.81,-4.383 l 1.584,0.918 c -1.751,3.344 -4.844,5.223 -8.64,5.223 -5.723,0 -9.357,-4.639 -9.357,-10.107 0,-5.389 3.717,-10.02 9.357,-10.02 5.843,0 9.312,4.674 9.268,10.229 l -16.744,0 z m 14.862,-1.754 c -0.457,-3.549 -3.38,-6.721 -7.348,-6.721 -3.924,0 -7.178,3.088 -7.514,6.721 l 14.862,0 z"
       id="path59"
       inkscape:connector-curvature="0"
       style="fill:#83898e" /><path
       d="m 545.573,149 0.083,0 c 1.129,-2.135 3.217,-3.422 5.723,-3.422 4.97,0 6.348,3.088 6.348,8.059 l 0,11.646 -1.879,0 0,-11.646 c 0,-3.467 -0.421,-6.305 -4.636,-6.305 -4.845,0 -5.639,4.51 -5.639,8.436 l 0,9.516 -1.876,0 0,-19.289 1.876,0 0,3.005 z"
       id="path61"
       inkscape:connector-curvature="0"
       style="fill:#83898e" /><path
       d="m 579.227,161.816 -0.085,0 c -1.418,2.469 -4.506,3.889 -7.35,3.889 -5.846,0 -9.522,-4.555 -9.522,-10.189 0,-5.637 3.635,-9.938 9.442,-9.938 2.961,0 5.801,1.336 7.43,3.756 l 0.085,0 0,-18.5 1.878,0 0,34.449 -1.878,0 0,-3.467 z m 0.123,-6.509 c 0,-4.467 -3.046,-7.975 -7.725,-7.975 -4.428,0 -7.473,4.01 -7.473,8.184 0,4.422 2.922,8.432 7.599,8.432 4.928,-0.001 7.599,-4.01 7.599,-8.641 z"
       id="path63"
       inkscape:connector-curvature="0"
       style="fill:#83898e" /></g><g
     id="g67"><linearGradient
       id="SVGID_1_"
       gradientUnits="userSpaceOnUse"
       x1="25.3071"
       y1="90.926804"
       x2="143.9478"
       y2="90.926804"><stop
         offset="0"
         style="stop-color:#CCCCCC"
         id="stop70" /><stop
         offset="0.0148"
         style="stop-color:#D1D1D1"
         id="stop72" /><stop
         offset="0.0861"
         style="stop-color:#E6E6E6"
         id="stop74" /><stop
         offset="0.1669"
         style="stop-color:#F4F4F4"
         id="stop76" /><stop
         offset="0.2643"
         style="stop-color:#FCFCFC"
         id="stop78" /><stop
         offset="0.4233"
         style="stop-color:#FFFFFF"
         id="stop80" /></linearGradient><path
       d="m 84.616,18.829 c -32.699,0 -59.309,26.611 -59.309,59.315 0,15.909 6.217,30.854 17.491,42.079 l 41.818,42.803 41.771,-42.756 c 11.344,-11.271 17.561,-26.211 17.561,-42.125 0,-32.705 -26.61,-59.316 -59.332,-59.316 z"
       id="path82"
       style="fill:url(#SVGID_1_)"
       inkscape:connector-curvature="0" /></g><g
     id="g84"
     style="opacity:0.3"><g
       id="g86"><linearGradient
         id="SVGID_2_"
         gradientUnits="userSpaceOnUse"
         x1="84.627403"
         y1="163.02541"
         x2="84.627403"
         y2="18.8291"><stop
           offset="0.3077"
           style="stop-color:#231F20"
           id="stop89" /><stop
           offset="1"
           style="stop-color:#B5B5B5"
           id="stop91" /></linearGradient><path
         d="m 84.616,18.829 c -32.699,0 -59.309,26.611 -59.309,59.315 0,15.909 6.217,30.854 17.491,42.079 l 41.818,42.803 41.771,-42.756 c 11.344,-11.271 17.561,-26.211 17.561,-42.125 0,-32.705 -26.61,-59.316 -59.332,-59.316 z"
         id="path93"
         style="fill:url(#SVGID_2_)"
         inkscape:connector-curvature="0" /></g></g><g
     id="g95"><linearGradient
       id="SVGID_3_"
       gradientUnits="userSpaceOnUse"
       x1="84.627403"
       y1="158.22459"
       x2="84.627403"
       y2="23.6416"><stop
         offset="0"
         style="stop-color:#CCCCCC"
         id="stop98" /><stop
         offset="0.0148"
         style="stop-color:#D1D1D1"
         id="stop100" /><stop
         offset="0.0861"
         style="stop-color:#E6E6E6"
         id="stop102" /><stop
         offset="0.1669"
         style="stop-color:#F4F4F4"
         id="stop104" /><stop
         offset="0.2643"
         style="stop-color:#FCFCFC"
         id="stop106" /><stop
         offset="0.4233"
         style="stop-color:#FFFFFF"
         id="stop108" /></linearGradient><path
       d="m 84.613,23.641 c -30.518,0 -55.347,24.835 -55.347,55.36 0,14.833 5.788,28.784 16.324,39.264 L 84.612,158.224 123.6,118.32 c 10.59,-10.535 16.389,-24.469 16.389,-39.319 0,-30.525 -24.839,-55.36 -55.376,-55.36 z"
       id="path110"
       style="fill:url(#SVGID_3_)"
       inkscape:connector-curvature="0" /></g><path
     d="m 84.613,20.659 c -31.89,0 -57.826,25.945 -57.826,57.829 0,15.512 6.055,30.09 17.055,41.03 l 40.771,41.736 40.729,-41.67 C 136.396,108.578 142.466,94 142.466,78.488 c 0,-31.884 -25.952,-57.829 -57.853,-57.829 z"
     id="path112"
     inkscape:connector-curvature="0"
     style="fill:none" /><path
     d="m 28.581,89.218 c 0,-30.938 25.09,-56.04 56.035,-56.04 30.962,0 56.059,25.102 56.059,56.04 0,1.255 -0.052,2.503 -0.127,3.716 1.191,-4.641 1.835,-9.5 1.835,-14.525 0,-31.892 -25.857,-57.75 -57.767,-57.75 -31.884,0 -57.744,25.858 -57.744,57.75 0,5.025 0.641,9.885 1.838,14.525 -0.075,-1.213 -0.129,-2.461 -0.129,-3.716 z"
     id="path119"
     style="opacity:0.15;fill:url(#SVGID_4_)"
     inkscape:connector-curvature="0" /><path
     d="m 84.613,7.691 c -38.834,0 -70.438,31.612 -70.438,70.453 0,18.897 7.376,36.635 20.724,49.899 l 45.746,46.852 c 1.041,1.062 2.479,1.664 3.968,1.664 1.511,0 2.939,-0.602 3.99,-1.664 l 45.684,-46.793 c 13.407,-13.322 20.792,-31.061 20.792,-49.958 0,-38.841 -31.614,-70.453 -70.466,-70.453 z m 48.441,119.51 -44.554,45.623 c -1.018,1.039 -2.417,1.633 -3.886,1.633 -1.459,0 -2.86,-0.594 -3.877,-1.633 l -44.6,-45.67 C 23.121,114.224 15.939,96.924 15.939,78.487 15.939,40.614 46.74,9.813 84.615,9.813 c 37.894,0 68.701,30.801 68.701,68.674 -0.002,18.437 -7.187,35.738 -20.262,48.714 z"
     id="path136"
     style="fill:#757575;fill-opacity:1"
     inkscape:connector-curvature="0" /><path
     d="m 106.528,88.905 0,11.5 -45.364,0 24.44,-36.312 -20.643,0 0,-11.493 43.131,0 -24.245,36.305 22.681,0 z"
     id="path142"
     inkscape:connector-curvature="0"
     style="fill:#757575;fill-opacity:1" /><path
     d="m 84.612,9.359 c -38.085,0 -69.047,30.975 -69.047,69.059 0,18.526 7.212,35.932 20.311,48.92 l 44.828,45.93 c 1.039,1.051 2.444,1.629 3.908,1.629 1.48,0 2.882,-0.578 3.902,-1.629 l 44.797,-45.861 C 146.462,114.35 153.69,96.944 153.69,78.418 153.691,40.333 122.705,9.359 84.612,9.359 Z M 125.309,119.504 84.612,161.172 43.879,119.455 C 32.883,108.533 26.838,93.959 26.838,78.466 c 0,-31.862 25.91,-57.78 57.774,-57.78 31.872,0 57.805,25.918 57.805,57.78 0,15.507 -6.058,30.067 -17.108,41.038 z"
     id="path149"
     style="fill:#757575;fill-opacity:1"
     inkscape:connector-curvature="0" /></svg>