<?xml version="1.0" encoding="UTF-8" standalone="no"?>
<!-- Created with Inkscape (http://www.inkscape.org/) -->

<svg
   xmlns:dc="http://purl.org/dc/elements/1.1/"
   xmlns:cc="http://creativecommons.org/ns#"
   xmlns:rdf="http://www.w3.org/1999/02/22-rdf-syntax-ns#"
   xmlns:svg="http://www.w3.org/2000/svg"
   xmlns="http://www.w3.org/2000/svg"
   xmlns:sodipodi="http://sodipodi.sourceforge.net/DTD/sodipodi-0.dtd"
   xmlns:inkscape="http://www.inkscape.org/namespaces/inkscape"
   width="3500"
   height="1024"
   viewBox="0 0 3500 1024"
   id="svg2"
   version="1.1"
   inkscape:version="0.91 r13725"
   sodipodi:docname="logo.svg">
  <defs
     id="defs4" />
  <sodipodi:namedview
     id="base"
     pagecolor="#ffffff"
     bordercolor="#666666"
     borderopacity="1.0"
     inkscape:pageopacity="0.0"
     inkscape:pageshadow="2"
     inkscape:zoom="0.25"
     inkscape:cx="1917.1973"
     inkscape:cy="897.49994"
     inkscape:document-units="px"
     inkscape:current-layer="layer5"
     showgrid="false"
     showguides="false"
     units="px"
     inkscape:window-width="1920"
     inkscape:window-height="1009"
     inkscape:window-x="0"
     inkscape:window-y="24"
     inkscape:window-maximized="1" />
  <metadata
     id="metadata7">
    <rdf:RDF>
      <cc:Work
         rdf:about="">
        <dc:format>image/svg+xml</dc:format>
        <dc:type
           rdf:resource="http://purl.org/dc/dcmitype/StillImage" />
        <dc:title />
      </cc:Work>
    </rdf:RDF>
  </metadata>
  <g
     inkscape:groupmode="layer"
     id="layer9"
     inkscape:label="Cercle">
    <circle
       transform="translate(0,-28.362139)"
       style="fill:#75cf78;fill-opacity:1;stroke:#c77ec3;stroke-width:31.20000076;stroke-linecap:round;stroke-linejoin:round;stroke-miterlimit:4;stroke-dasharray:none;stroke-opacity:1"
       id="path4599"
       cx="544"
       cy="524.36212"
       r="366"
       inkscape:export-xdpi="90"
       inkscape:export-ydpi="90" />
    <circle
       r="325.71698"
       cy="495.99997"
       cx="544"
       id="circle4603"
       style="fill:#75cf78;fill-opacity:1;stroke:#ffffff;stroke-width:27.76603699;stroke-linecap:round;stroke-linejoin:round;stroke-miterlimit:4;stroke-dasharray:none;stroke-opacity:1"
       inkscape:export-xdpi="90"
       inkscape:export-ydpi="90" />
  </g>
  <g
     inkscape:groupmode="layer"
     id="layer8"
     inkscape:label="Cou"
     transform="translate(0,-28.362139)">
    <path
       style="fill:#e19d61;fill-opacity:1;fill-rule:evenodd;stroke:none;stroke-width:3;stroke-linecap:butt;stroke-linejoin:miter;stroke-miterlimit:4;stroke-dasharray:none;stroke-opacity:1"
       d="m 302.23792,719.19267 c 60.59257,-163.22968 31.87626,-53.40836 89.74228,-121.20659 l 29.79662,-6.47751 24.61466,100.40183 4.3019,136.32623 c 0,0 -38.12722,-16.63469 -82.78871,-46.2846 -49.10619,-32.60066 -65.66675,-62.75936 -65.66675,-62.75936 z"
       id="path4578"
       inkscape:connector-curvature="0"
       sodipodi:nodetypes="cccccsc"
       inkscape:export-xdpi="90"
       inkscape:export-ydpi="90" />
  </g>
  <g
     inkscape:label="Visage"
     inkscape:groupmode="layer"
     id="layer1"
     style="display:inline"
     transform="translate(0,-28.362139)">
    <path
       sodipodi:nodetypes="ssssssssssssssssssssssssssssssssss"
       inkscape:connector-curvature="0"
       id="path3367"
       d="m 499.20786,683.2183 c 5.55324,1.44283 11.60957,-0.68669 17.01258,-2.6173 10.49712,-3.7508 18.89426,-11.88206 28.7905,-17.01259 8.49352,-4.40326 17.3094,-8.17779 26.17321,-11.77799 4.73054,-1.92138 9.28954,-5.20374 14.39529,-5.2346 9.24313,-0.0586 17.51781,5.91658 26.17321,9.16062 6.59908,2.4733 13.03401,5.37002 19.62987,7.85197 7.36023,2.76959 14.45613,6.78296 22.24719,7.85196 6.49693,0.89145 13.42015,0.79947 19.62988,-1.30871 7.44663,-2.52812 14.64417,-7.00495 19.62989,-13.08657 5.08444,-6.20204 8.5772,-14.24865 9.16061,-22.24719 0.52325,-7.17524 -1.68994,-14.67809 -5.2346,-20.9386 -2.7355,-4.83153 -6.91084,-9.10616 -11.77791,-11.77791 -3.52551,-1.93532 -9.26145,0.51958 -11.77799,-2.6173 -5.18615,-6.46513 -1.20356,-16.6642 0,-24.86456 1.98405,-13.51799 6.5154,-26.65116 11.77799,-39.25977 4.21066,-10.08819 10.75705,-19.04222 15.70386,-28.7905 7.41762,-14.61726 16.18286,-28.80787 20.93861,-44.49443 5.11911,-16.88509 8.21444,-34.70614 7.8519,-52.34642 -0.23745,-11.54706 -2.83548,-23.08695 -6.54325,-34.02517 -3.44453,-10.16169 -7.71558,-20.39373 -14.39529,-28.7905 -8.10172,-10.18426 -18.45036,-19.06273 -30.09914,-24.86455 -8.4291,-4.1982 -18.14712,-5.30371 -27.48186,-6.54325 -14.27656,-1.89581 -28.80442,-2.07711 -43.18579,-1.30865 -12.75195,0.68155 -26.13019,0.40307 -37.95112,5.2346 -17.60568,7.19555 -32.46047,20.47119 -45.80308,34.02517 -12.0597,12.25075 -21.51236,26.98469 -30.09916,41.87707 -9.5576,16.5761 -18.01116,34.0333 -23.5559,52.3464 -5.38242,17.77694 -6.356,36.60275 -9.16061,54.96371 -2.394,15.67286 -6.30765,31.25882 -6.54333,47.11174 -0.30046,20.18208 2.42303,40.43906 6.54333,60.19837 2.9854,14.3168 7.15927,28.50733 13.08664,41.87707 3.48703,7.86531 7.40874,15.78323 13.08656,22.24725 3.28229,3.73681 6.96404,7.90986 11.77791,9.16063 z"
       style="fill:#e19d61;fill-opacity:1;fill-rule:evenodd;stroke:#000000;stroke-width:3;stroke-linecap:butt;stroke-linejoin:miter;stroke-miterlimit:4;stroke-dasharray:none;stroke-opacity:1"
       inkscape:export-xdpi="90"
       inkscape:export-ydpi="90" />
    <path
       inkscape:connector-curvature="0"
       id="path4397"
       d="m 597.51858,318.2376 c 0,0 24.53778,2.07162 36.51709,12.22634 13.04076,11.05452 19.27987,28.90205 23.96688,45.34271 5.99324,21.02238 8.50347,43.92641 4.53428,65.42308 -4.19218,22.70426 -19.63691,41.79448 -29.14894,62.83209 -8.16504,18.05852 -21.78182,34.71354 -23.9668,54.41136 -1.35857,12.24731 -0.87562,26.90247 7.12527,36.27414 8.95923,10.49425 26.19687,8.78151 38.8652,14.25062 7.97876,3.44455 18.18595,4.64701 23.31912,11.65957 4.90629,6.70271 6.01449,16.58526 3.88652,24.61458 -2.12512,8.01846 -8.79859,14.60729 -15.54608,19.43259 -4.66656,3.33718 -10.75472,3.31072 -10.75472,3.31072 0,0 4.3387,0.96077 14.32568,-0.56648 4.59753,-0.70282 8.33902,-3.19164 12.08058,-5.9544 5.3155,-3.925 10.20962,-8.72846 12.8821,-14.77146 2.39737,-5.42096 3.39199,-11.43934 2.91997,-17.34794 -0.406,-5.08026 -2.22017,-9.87881 -4.92388,-14.19896 -2.57985,-4.12221 -5.60095,-8.71673 -10.13391,-10.47748 -2.56175,-0.99506 -7.65131,0.43458 -10.13391,-0.74428 -3.38195,-1.6056 -4.23654,-4.10785 -5.38191,-7.67205 -1.49772,-4.66048 -0.20519,-10.3795 0.45804,-15.22949 1.34332,-9.82018 3.98699,-19.14752 6.76983,-28.6605 2.67915,-9.15849 5.89241,-18.56315 10.57811,-26.87578 8.92661,-15.83622 17.80809,-30.15331 25.56875,-46.14254 3.75131,-7.72878 7.566,-15.96264 9.92865,-24.22244 2.9371,-10.26817 4.60111,-20.94491 5.26735,-31.60413 0.59067,-9.45522 0.38694,-19.04895 -1.14509,-28.39791 -1.36325,-8.3199 -3.86548,-16.48978 -7.09947,-24.27564 -2.67358,-6.43669 -5.99522,-12.67148 -10.07669,-18.32124 -5.12429,-7.09332 -10.89973,-13.93784 -17.8632,-19.23729 -7.25447,-5.52085 -15.5488,-9.95965 -24.27563,-12.59585 -9.48226,-2.86442 -19.6548,-2.6217 -29.543,-3.20622 -7.62089,-0.4507 -15.27081,-0.45876 -22.90154,-0.22865 -7.94386,0.23965 -16.09865,0.95285 -16.09865,0.95285 z"
       style="display:inline;fill:#f6bf8e;fill-opacity:1;fill-rule:evenodd;stroke:none;stroke-width:3;stroke-linecap:butt;stroke-linejoin:miter;stroke-miterlimit:4;stroke-dasharray:none;stroke-opacity:1"
       sodipodi:nodetypes="csssssssssscsssssssssssssssssssssc"
       inkscape:export-xdpi="90"
       inkscape:export-ydpi="90" />
  </g>
  <g
     inkscape:groupmode="layer"
     id="layer7"
     inkscape:label="Visage composants"
     transform="translate(0,-28.362139)">
    <g
       style="stroke:#000000;stroke-width:0.40936106;stroke-linejoin:round;stroke-miterlimit:4;stroke-dasharray:none;stroke-opacity:1"
       id="g4191"
       transform="matrix(7.328494,0,0,7.328494,-3909.6664,-685.9385)"
       inkscape:export-xdpi="90"
       inkscape:export-ydpi="90">
      <path
         style="fill:#ffffff;fill-opacity:1;fill-rule:evenodd;stroke:#000000;stroke-width:0.40936106;stroke-linecap:butt;stroke-linejoin:round;stroke-miterlimit:4;stroke-dasharray:none;stroke-opacity:1"
         d="m 607.63489,162.92289 4.16688,1.01015 c 0.51948,-4.4345 0.43521,-6.85554 -0.75762,-6.81853 -2.7628,0.0857 -2.91098,3.05179 -3.40926,5.80838 z"
         id="path3371"
         inkscape:connector-curvature="0"
         sodipodi:nodetypes="ccsc" />
      <circle
         style="fill:#000000;fill-opacity:1;fill-rule:evenodd;stroke:#000000;stroke-width:0.40936106;stroke-linecap:butt;stroke-linejoin:round;stroke-miterlimit:4;stroke-dasharray:none;stroke-opacity:1"
         id="circle3375"
         cx="609.02386"
         cy="160.58691"
         r="0.88388348" />
    </g>
    <g
       id="g4327"
       transform="matrix(7.328494,0,0,7.328494,-3909.6664,-685.9385)"
       style="stroke:#000000;stroke-width:0.40936106;stroke-miterlimit:4;stroke-dasharray:none;stroke-opacity:1"
       inkscape:export-xdpi="90"
       inkscape:export-ydpi="90">
      <path
         sodipodi:nodetypes="ccsc"
         inkscape:connector-curvature="0"
         id="path4277"
         d="m 623.37706,166.7741 2.87262,0.53664 c 1.18239,-3.14024 2.32925,-4.92994 0.94701,-5.33487 -2.65264,-0.7771 -3.32135,2.04164 -3.81963,4.79823 z"
         style="fill:#ffffff;fill-opacity:1;fill-rule:evenodd;stroke:#000000;stroke-width:0.40936106;stroke-linecap:butt;stroke-linejoin:miter;stroke-miterlimit:4;stroke-dasharray:none;stroke-opacity:1" />
      <circle
         r="0.68226403"
         cy="164.69066"
         cx="624.63971"
         id="circle4279"
         style="fill:#000000;fill-opacity:1;fill-rule:evenodd;stroke:#000000;stroke-width:0.40936106;stroke-linecap:butt;stroke-linejoin:miter;stroke-miterlimit:4;stroke-dasharray:none;stroke-opacity:1" />
    </g>
    <g
       id="g4573"
       style="fill:#874b19;fill-opacity:1;stroke:#000000;stroke-width:0.40936106;stroke-miterlimit:4;stroke-dasharray:none;stroke-opacity:1"
       transform="matrix(7.328494,0,0,7.328494,-3909.6664,-685.9385)"
       inkscape:export-xdpi="90"
       inkscape:export-ydpi="90">
      <path
         style="fill:#874b19;fill-opacity:1;fill-rule:evenodd;stroke:#000000;stroke-width:0.40936106;stroke-linecap:round;stroke-linejoin:round;stroke-miterlimit:4;stroke-dasharray:none;stroke-opacity:1"
         d="m 603.84682,156.23063 c 2.53201,-10.32314 12.3553,-14.91919 14.39467,-2.39912 -6.04784,-10.01484 -10.99873,-3.99416 -14.39467,2.39912 z"
         id="path3373"
         inkscape:connector-curvature="0"
         sodipodi:nodetypes="ccc" />
      <path
         sodipodi:nodetypes="ccc"
         inkscape:connector-curvature="0"
         id="path4289"
         d="m 625.45396,158.46277 c 3.20831,-5.21971 6.51613,-4.97141 6.58217,-2.15358 -1.87685,-1.07962 -3.99972,-0.76517 -6.58217,2.15358 z"
         style="fill:#874b19;fill-opacity:1;fill-rule:evenodd;stroke:#000000;stroke-width:0.40936106;stroke-linecap:round;stroke-linejoin:round;stroke-miterlimit:4;stroke-dasharray:none;stroke-opacity:1" />
    </g>
    <path
       sodipodi:nodetypes="cssc"
       inkscape:connector-curvature="0"
       id="path4271"
       d="m 592.25079,646.55956 c 0,0 -7.88627,-13.17196 -6.69861,-18.80646 1.24218,-5.89321 5.80526,-13.31397 11.81764,-13.66764 6.46812,-0.38036 14.34963,13.11221 14.34963,13.11221"
       style="fill:none;fill-rule:evenodd;stroke:#000000;stroke-width:3;stroke-linecap:round;stroke-linejoin:miter;stroke-miterlimit:4;stroke-dasharray:none;stroke-opacity:1"
       inkscape:export-xdpi="90"
       inkscape:export-ydpi="90" />
  </g>
  <g
     inkscape:groupmode="layer"
     id="layer5"
     inkscape:label="Barbe"
     style="display:inline"
     transform="translate(0,-28.362139)">
    <path
       inkscape:connector-curvature="0"
       id="path3379"
       d="m 411.05539,617.23363 c 1.17432,10.18603 3.41697,20.2874 3.70148,30.53696 0.78905,28.42707 -3.96099,56.73976 -5.55222,85.13327 -1.1058,19.73177 -6.65905,39.8457 -2.77604,59.22319 2.54828,12.7169 8.3624,25.19271 16.65649,35.16379 4.37981,5.2653 14.18687,5.64163 16.6565,12.02965 2.15964,5.58614 -4.04335,11.60262 -3.7014,17.58194 0.61266,10.71206 5.19928,21.03292 10.17899,30.53695 4.29463,8.19663 9.22335,16.69702 16.65649,22.20863 2.9001,2.15041 6.95745,2.07155 10.17898,3.70149 6.94653,3.51452 12.54264,9.33078 19.43261,12.95508 5.88038,3.09321 12.09766,5.65255 18.50722,7.40288 11.74135,3.20629 23.91867,5.41246 36.0891,5.55214 7.15407,0.0821 14.19331,-3.73482 21.28334,-2.77603 6.30155,0.85215 11.37757,6.00907 17.58187,7.40288 6.92843,1.55649 14.2784,2.09016 21.28333,0.92537 7.51508,-1.24958 13.67592,-7.92188 21.28334,-8.32825 7.02386,-0.37522 13.32482,5.45218 20.35797,5.55213 10.47278,0.14875 20.62159,-4.02847 30.53696,-7.40286 5.75183,-1.95752 12.26379,-3.20528 16.65649,-7.40289 4.48797,-4.28855 6.50514,-10.72283 8.32832,-16.65657 1.37095,-4.46188 1.34823,-9.23976 1.85067,-13.88039 0.3994,-3.69268 0.31879,-7.43995 0.92537,-11.10434 1.03859,-6.27356 2.51403,-12.50952 4.62684,-18.50724 1.46739,-4.16552 3.69298,-8.02375 5.55214,-12.02972 2.14946,-4.63139 8.32832,-9.25361 6.47759,-13.88046 -1.85066,-4.62678 -4.29589,-6.80041 -6.47759,-10.17898 -5.80116,-8.98386 -15.45652,-16.35478 -17.58186,-26.83549 -1.37079,-6.75965 4.34653,-13.49094 3.70147,-20.35797 -0.80356,-8.55492 -4.83761,-16.68851 -9.25361,-24.05944 -4.60816,-7.6917 -13.21166,-12.52872 -17.58195,-20.35798 -2.99551,-5.36643 -4.48957,-11.52852 -5.55213,-17.58186 -1.28095,-7.29779 1.17682,-15.10387 -0.92536,-22.2087 -2.23637,-7.55831 -9.21302,-12.99621 -12.02973,-20.35798 -1.12375,-2.93703 2.43151,-6.6048 -3.15939,-6.96345 -9.94901,-0.63832 -16.71826,-7.6747 -25.26542,-10.38427 -15.58961,-4.94203 -27.83237,-10.67797 -45.71647,-16.98363 -16.65268,-5.87152 -32.02618,0.91027 -48.00654,8.42125 -11.39427,5.35544 -20.11217,22.22938 -32.38761,19.43259 -14.76421,-3.36377 -19.53799,-23.81078 -24.98483,-37.93983 -9.43089,-24.46368 -11.68139,-51.51411 -12.02971,-77.7304 -0.38842,-29.22743 3.88161,-58.66049 11.10435,-86.98402 5.23694,-20.53656 13.05505,-40.57948 23.13407,-59.22325 11.8855,-21.98533 51.11523,-37.27242 43.49205,-61.07383 -5.77228,-18.02231 -35.00712,-15.37965 -53.67103,-18.50724 -11.56004,-1.93714 -23.65395,-2.21657 -35.16373,0 -9.78661,1.88475 -19.56722,5.43027 -27.76091,11.10428 -7.89793,5.46919 -14.56891,12.99877 -19.43261,21.28334 -5.92597,10.09405 -8.48465,21.90502 -11.10436,33.31306 -3.20254,13.94606 -5.40359,28.25838 -5.55214,42.56668 -0.61851,59.57319 12.60926,118.4852 19.43261,177.66952 z"
       style="fill:#843d00;fill-opacity:1;fill-rule:evenodd;stroke:#000000;stroke-width:3;stroke-linecap:butt;stroke-linejoin:miter;stroke-miterlimit:4;stroke-dasharray:none;stroke-opacity:1"
       sodipodi:nodetypes="sssssssssssssssssssssssssssssssssssssssssssssssssss"
       inkscape:export-xdpi="90"
       inkscape:export-ydpi="90" />
    <path
       style="fill:#a2591a;fill-opacity:1;fill-rule:evenodd;stroke:none;stroke-width:3;stroke-linecap:butt;stroke-linejoin:miter;stroke-miterlimit:4;stroke-dasharray:none;stroke-opacity:1"
       d="m 648.29435,678.42026 c -6.47692,-2.76036 -11.52289,-6.43838 -17.7395,-3.1333 -4.51237,2.39905 -7.36023,7.24575 -11.77792,9.81498 -3.22183,1.87367 -6.82459,3.14685 -10.46926,3.92595 -3.41934,0.73064 -7.10381,-0.29389 -10.46934,0.65443 -4.03816,1.13789 -7.69045,3.47744 -11.12357,5.88896 -2.65327,1.86378 -4.74248,4.42545 -7.19767,6.54331 -2.34725,2.02479 -4.47097,4.41425 -7.1976,5.88897 -3.82256,2.06744 -9.29898,0.91459 -12.43228,3.92595 -4.17841,4.01579 -6.07605,10.56592 -5.88896,16.35821 0.17661,5.46736 3.03413,10.85336 6.54331,15.04965 2.5224,3.01633 7.37562,3.45935 9.81491,6.54325 5.05197,6.38693 4.01616,16.10788 8.50633,22.90154 3.14758,4.76228 9.47114,6.89758 12.43228,11.778 4.11833,6.78765 1.24643,16.98744 6.54325,22.90154 3.45882,3.86197 10.48576,2.48399 14.39527,5.88895 5.89594,5.13493 9.51973,12.79885 11.77793,20.28417 3.15543,10.45952 -1.5771,22.38086 1.963,32.71652 1.62708,4.75034 6.2949,7.92416 8.50627,12.43228 3.12881,6.37843 5.98605,13.20163 6.54331,20.28425 0.55403,7.04247 -3.68095,13.88618 -3.27165,20.93853 0.23597,4.06776 1.54257,8.08839 3.27165,11.77791 1.46343,3.12276 2.67366,7.25932 5.88896,8.50635 10.01388,3.88388 21.32981,-3.4836 31.40787,-7.1977 5.3092,-1.95655 12.62733,-2.72063 16.46379,-6.87969 4.17497,-4.526 6.5626,-9.94393 8.21136,-15.87657 2.06481,-7.42977 1.24154,-17.49396 2.52307,-25.09814 1.2879,-7.64195 3.105,-14.9828 6.18978,-22.07048 2.73176,-6.27656 5.91912,-11.32447 9.67376,-17.04815 2.48935,-3.79484 0.31611,-6.191 -3.05924,-11.24767 -6.18626,-9.26775 -15.00184,-17.2781 -19.45317,-28.02928 -0.8509,-2.05513 -0.58507,-3.79114 -0.68994,-6.01299 -0.29974,-6.3519 5.00909,-11.96696 3.27574,-20.23269 -1.69168,-8.06703 -3.35783,-9.65844 -5.50384,-14.07483 -3.62016,-7.45012 -4.56627,-8.32359 -9.30182,-13.1406 -4.21811,-4.29067 -8.94121,-7.94759 -11.99033,-14.76602 -1.87193,-4.18598 -3.20092,-9.88341 -4.47476,-14.28843 -2.01408,-6.96492 -0.30416,-14.26326 -1.01862,-21.4783 -0.27996,-2.82998 -0.14345,-3.36253 -1.66653,-5.76402 -4.62215,-7.28792 -9.69251,-14.6105 -19.20584,-18.66484 z"
       id="path4209"
       inkscape:connector-curvature="0"
       sodipodi:nodetypes="ssssssssssssssssssssssssssssssssssssssss"
       inkscape:export-xdpi="90"
       inkscape:export-ydpi="90" />
    <g
       id="g4613"
       style="stroke-width:5;stroke-miterlimit:4;stroke-dasharray:none"
       inkscape:export-xdpi="90"
       inkscape:export-ydpi="90">
      <path
         style="fill:none;fill-rule:evenodd;stroke:#522600;stroke-width:5;stroke-linecap:round;stroke-linejoin:miter;stroke-miterlimit:4;stroke-dasharray:none;stroke-opacity:1"
         d="m 479.32603,790.2763 c 0.12462,16.26515 1.93574,31.4056 16.65649,37.93983"
         id="path4255"
         inkscape:connector-curvature="0"
         sodipodi:nodetypes="cc" />
      <path
         style="fill:none;fill-rule:evenodd;stroke:#522600;stroke-width:5;stroke-linecap:round;stroke-linejoin:miter;stroke-miterlimit:4;stroke-dasharray:none;stroke-opacity:1"
         d="m 500.60937,863.37994 c 0.0367,18.34329 17.2822,25.73627 44.41734,26.83548"
         id="path4257"
         inkscape:connector-curvature="0"
         sodipodi:nodetypes="cc" />
      <path
         style="fill:none;fill-rule:evenodd;stroke:#522600;stroke-width:5;stroke-linecap:round;stroke-linejoin:miter;stroke-miterlimit:4;stroke-dasharray:none;stroke-opacity:1"
         d="m 462.66952,731.05313 c -18.01783,24.29454 -26.86024,47.52257 -15.73118,57.37243"
         id="path4259"
         inkscape:connector-curvature="0"
         sodipodi:nodetypes="cc" />
      <path
         style="fill:none;fill-rule:evenodd;stroke:#522600;stroke-width:5;stroke-linecap:round;stroke-linejoin:miter;stroke-miterlimit:4;stroke-dasharray:none;stroke-opacity:1"
         d="m 669.95063,847.64881 c 4.69237,12.78309 -5.01687,22.68587 -24.98481,30.53688"
         id="path4261"
         inkscape:connector-curvature="0"
         sodipodi:nodetypes="cc" />
      <path
         style="fill:none;fill-rule:evenodd;stroke:#522600;stroke-width:5;stroke-linecap:round;stroke-linejoin:miter;stroke-miterlimit:4;stroke-dasharray:none;stroke-opacity:1"
         d="m 681.98036,884.66328 c 3.48397,15.45681 -3.17589,27.10971 -19.43261,35.16373"
         id="path4263"
         inkscape:connector-curvature="0"
         sodipodi:nodetypes="cc" />
      <path
         style="fill:none;fill-rule:evenodd;stroke:#522600;stroke-width:5;stroke-linecap:round;stroke-linejoin:miter;stroke-miterlimit:4;stroke-dasharray:none;stroke-opacity:1"
         d="m 689.81305,847.80754 c 4.1831,14.24829 12.12639,9.69553 18.50724,12.9551"
         id="path4265"
         inkscape:connector-curvature="0"
         sodipodi:nodetypes="cc" />
      <path
         style="fill:none;fill-rule:evenodd;stroke:#522600;stroke-width:5;stroke-linecap:round;stroke-linejoin:miter;stroke-miterlimit:4;stroke-dasharray:none;stroke-opacity:1"
         d="m 619.0557,750.48573 c 8.39935,2.68729 11.64982,11.8106 10.17899,26.83555"
         id="path4267"
         inkscape:connector-curvature="0"
         sodipodi:nodetypes="cc" />
    </g>
    <path
       style="fill:#a2591a;fill-opacity:1;fill-rule:evenodd;stroke:none;stroke-width:3;stroke-linecap:butt;stroke-linejoin:miter;stroke-miterlimit:4;stroke-dasharray:none;stroke-opacity:1"
       d="m 404.06833,416.44806 c -2.32533,-7.27265 -0.94918,-15.39694 0.45802,-22.90154 1.22848,-6.55138 3.85553,-12.83454 6.87047,-18.77927 4.23293,-8.3462 8.37258,-17.38216 15.57305,-23.35957 7.78967,-6.46652 18.10571,-9.50388 27.93988,-11.9088 7.73472,-1.89149 16.27578,-4.38647 23.81761,-1.83213 3.68682,1.24871 6.85801,4.35885 8.70259,7.78653 4.46114,8.28999 7.61745,19.19867 4.12228,27.93988 -11.87216,29.6914 -43.88545,63.36325 -75.57511,59.08599 -6.59695,-0.89042 -9.88151,-9.69047 -11.90879,-16.03109 z"
       id="path4449"
       inkscape:connector-curvature="0"
       sodipodi:nodetypes="ssssssssss"
       inkscape:export-xdpi="90"
       inkscape:export-ydpi="90" />
    <path
       style="display:inline;fill:#522600;fill-opacity:1;fill-rule:evenodd;stroke:none;stroke-width:3;stroke-linecap:butt;stroke-linejoin:miter;stroke-miterlimit:4;stroke-dasharray:none;stroke-opacity:1"
       d="m 415.95617,424.82233 c -6.92704,-10.83517 -0.49835,-26.24758 3.70147,-38.40255 2.9901,-8.65334 7.81554,-17.22152 14.80576,-23.13408 6.91143,-5.84594 16.12664,-8.77748 24.98481,-10.64163 12.37645,-2.60462 27.45239,-7.53164 37.93983,-0.46243 8.78702,5.92296 -10.57486,13.97178 -11.56707,24.5221 -2.28385,24.28413 -14.91972,31.26511 -37.93983,39.32792 -18.04561,6.32046 -21.62594,24.90031 -31.92497,8.79067 z"
       id="path4281"
       inkscape:connector-curvature="0"
       sodipodi:nodetypes="ssssssss"
       inkscape:export-xdpi="90"
       inkscape:export-ydpi="90" />
    <g
       transform="translate(950.35151,458.2052)"
       style="font-style:normal;font-weight:normal;font-size:241.72839355px;line-height:125%;font-family:sans-serif;letter-spacing:0px;word-spacing:0px;fill:#ffba6b;fill-opacity:1;stroke:none;stroke-width:1px;stroke-linecap:butt;stroke-linejoin:miter;stroke-opacity:1"
       id="flowRoot4622">
      <path
         d="m 127.62972,-67.798199 53.6453,0 0,167.57515 177.93241,-167.57515 69.04839,0 -196.78793,184.837249 210.86318,211.6599 -70.64182,0 -190.41423,-190.94538 0,190.94538 -53.6453,0 0,-396.497149 z"
         style="font-size:543.88891602px;fill:#ffba6b;fill-opacity:1"
         id="path4639" />
      <path
         d="m 484.55682,-67.798199 53.64529,0 0,396.497149 -53.64529,0 0,-396.497149 z"
         style="font-size:543.88891602px;fill:#ffba6b;fill-opacity:1"
         id="path4641" />
      <path
         d="m 644.96157,-67.798199 79.9368,0 101.18246,269.819889 101.7136,-269.819889 79.93677,0 0,396.497149 -52.31741,0 0,-348.16327 -102.24474,271.94446 -53.91087,0 -102.24474,-271.94446 0,348.16327 -52.05187,0 0,-396.497149 z"
         style="font-size:543.88891602px;fill:#ffba6b;fill-opacity:1"
         id="path4643" />
      <path
         d="m 1247.0105,-14.949617 -72.7664,197.319077 145.7984,0 -73.032,-197.319077 z m -30.2751,-52.848582 60.8157,0 151.1098,396.497149 -55.7699,0 -36.1176,-101.71361 -178.7291,0 -36.1176,101.71361 -56.5666,0 151.3753,-396.497149 z"
         style="font-size:543.88891602px;fill:#ffba6b;fill-opacity:1"
         id="path4645" />
      <path
         d="m 1486.2898,-67.798199 72.2352,0 175.8078,331.697879 0,-331.697879 52.0519,0 0,396.497149 -72.2352,0 -175.8079,-331.6978832 0,331.6978832 -52.0518,0 0,-396.497149 z"
         style="font-size:543.88891602px;fill:#ffba6b;fill-opacity:1"
         id="path4647" />
      <path
         d="m 1893.1441,-67.798199 53.6453,0 0,368.877789 q 0,71.7041 -27.3538,104.10373 -27.0882,32.39964 -87.3727,32.39964 l -20.449,0 0,-45.14703 16.731,0 q 35.5864,0 50.1928,-19.91781 14.6064,-19.91781 14.6064,-71.43853 l 0,-368.877789 z"
         style="font-size:543.88891602px;fill:#ffba6b;fill-opacity:1"
         id="path4649" />
      <path
         d="m 2047.4408,-67.798199 53.9108,0 0,240.872679 q 0,63.73698 23.1047,91.88748 23.1047,27.88493 74.891,27.88493 51.5207,0 74.6253,-27.88493 23.1047,-28.1505 23.1047,-91.88748 l 0,-240.872679 53.9109,0 0,247.511949 q 0,77.54666 -38.5078,117.1167 -38.2422,39.57005 -113.1331,39.57005 -75.1566,0 -113.6643,-39.57005 -38.2422,-39.57004 -38.2422,-117.1167 l 0,-247.511949 z"
         style="font-size:543.88891602px;fill:#ffba6b;fill-opacity:1"
         id="path4651" />
    </g>
    <g
       transform="matrix(1.1248643,0,0,1.1248643,567.05125,-513.5738)"
       style="font-style:normal;font-weight:normal;font-size:84.83687592px;line-height:125%;font-family:sans-serif;letter-spacing:0px;word-spacing:0px;fill:#856c4e;fill-opacity:1;stroke:none;stroke-width:1px;stroke-linecap:butt;stroke-linejoin:miter;stroke-opacity:1"
       id="flowRoot4630">
      <path
         d="m 470.76727,681.63198 q -9.11334,0 -14.49849,6.79358 -5.34373,6.79358 -5.34373,18.51664 0,11.68164 5.34373,18.47522 5.38515,6.79358 14.49849,6.79358 9.11333,0 14.41564,-6.79358 5.34373,-6.79358 5.34373,-18.47522 0,-11.72306 -5.34373,-18.51664 -5.30231,-6.79358 -14.41564,-6.79358 z m 11.72306,55.05284 11.01885,12.05446 -10.10752,0 -9.15476,-9.9004 q -1.367,0.0829 -2.11263,0.12427 -0.70422,0.0414 -1.367,0.0414 -13.04865,0 -20.87783,-8.6991 -7.78776,-8.74052 -7.78776,-23.36328 0,-14.66418 7.78776,-23.36328 7.82918,-8.74052 20.87783,-8.74052 13.00721,0 20.79497,8.74052 7.78776,8.6991 7.78776,23.36328 0,10.77031 -4.34955,18.4338 -4.30812,7.66348 -12.51012,11.30882 z"
         style=""
         id="path4654" />
      <path
         d="m 511.32161,719.49375 0,-28.08564 7.62207,0 0,27.79567 q 0,6.58646 2.5683,9.9004 2.5683,3.27251 7.70491,3.27251 6.17222,0 9.7347,-3.9353 3.60391,-3.9353 3.60391,-10.72888 l 0,-26.3044 7.62206,0 0,46.39516 -7.62206,0 0,-7.12497 q -2.77542,4.22527 -6.46218,6.29649 -3.64534,2.02979 -8.49197,2.02979 -7.99489,0 -12.13731,-4.97091 -4.14243,-4.97092 -4.14243,-14.53992 z m 19.17943,-29.2041 0,0 z"
         style=""
         id="path4656" />
      <path
         d="m 587.04515,714.48142 q -9.23761,0 -12.80009,2.11263 -3.56249,2.11264 -3.56249,7.20782 0,4.05958 2.65115,6.46219 2.69258,2.36118 7.29067,2.36118 6.33791,0 10.14895,-4.47382 3.85245,-4.51524 3.85245,-11.97161 l 0,-1.69839 -7.58064,0 z m 15.2027,-3.14825 0,26.4701 -7.62206,0 0,-7.04212 q -2.60973,4.22527 -6.50361,6.25506 -3.89388,1.98837 -9.52758,1.98837 -7.12497,0 -11.35024,-3.97673 -4.18385,-4.01816 -4.18385,-10.72888 0,-7.82919 5.21945,-11.80592 5.26088,-3.97673 15.65837,-3.97673 l 10.68746,0 0,-0.74563 q 0,-5.26088 -3.47964,-8.11916 -3.43821,-2.8997 -9.69327,-2.8997 -3.97673,0 -7.74634,0.95276 -3.76961,0.95276 -7.24924,2.85828 l 0,-7.04213 q 4.18385,-1.61554 8.11915,-2.4026 3.93531,-0.82849 7.66349,-0.82849 10.06609,0 15.037,5.21946 4.97091,5.21945 4.97091,15.82406 z"
         style=""
         id="path4658" />
      <path
         d="m 656.55505,709.80048 0,28.00279 -7.62206,0 0,-27.75425 q 0,-6.58646 -2.56831,-9.85897 -2.5683,-3.27252 -7.70491,-3.27252 -6.17221,0 -9.7347,3.93531 -3.56248,3.9353 -3.56248,10.72888 l 0,26.22155 -7.66349,0 0,-46.39516 7.66349,0 0,7.20782 q 2.734,-4.18385 6.42075,-6.25507 3.72819,-2.07121 8.57483,-2.07121 7.99488,0 12.09588,4.97091 4.101,4.92949 4.101,14.53992 z"
         style=""
         id="path4660" />
      <path
         d="m 702.37028,698.45023 0,-25.1031 7.62206,0 0,64.45614 -7.62206,0 0,-6.95927 q -2.40261,4.14242 -6.08937,6.17221 -3.64533,1.98837 -8.78194,1.98837 -8.40913,0 -13.71143,-6.71073 -5.26088,-6.71073 -5.26088,-17.64674 0,-10.936 5.26088,-17.64673 5.3023,-6.71073 13.71143,-6.71073 5.13661,0 8.78194,2.02979 3.68676,1.98836 6.08937,6.13079 z m -25.97301,16.19688 q 0,8.40913 3.43821,13.21434 3.47964,4.76379 9.52758,4.76379 6.04794,0 9.52758,-4.76379 3.47964,-4.80521 3.47964,-13.21434 0,-8.40912 -3.47964,-13.17291 -3.47964,-4.80521 -9.52758,-4.80521 -6.04794,0 -9.52758,4.80521 -3.43821,4.76379 -3.43821,13.17291 z"
         style=""
         id="path4662" />
      <path
         d="m 752.70075,673.34713 7.62207,0 0,64.45614 -7.62207,0 0,-64.45614 z"
         style=""
         id="path4664" />
      <path
         d="m 797.31466,714.48142 q -9.23761,0 -12.80009,2.11263 -3.56249,2.11264 -3.56249,7.20782 0,4.05958 2.65115,6.46219 2.69258,2.36118 7.29067,2.36118 6.33791,0 10.14894,-4.47382 3.85246,-4.51524 3.85246,-11.97161 l 0,-1.69839 -7.58064,0 z m 15.2027,-3.14825 0,26.4701 -7.62206,0 0,-7.04212 q -2.60973,4.22527 -6.50361,6.25506 -3.89388,1.98837 -9.52758,1.98837 -7.12497,0 -11.35024,-3.97673 -4.18385,-4.01816 -4.18385,-10.72888 0,-7.82919 5.21945,-11.80592 5.26088,-3.97673 15.65837,-3.97673 l 10.68746,0 0,-0.74563 q 0,-5.26088 -3.47964,-8.11916 -3.43821,-2.8997 -9.69327,-2.8997 -3.97673,0 -7.74634,0.95276 -3.76961,0.95276 -7.24924,2.85828 l 0,-7.04213 q 4.18385,-1.61554 8.11915,-2.4026 3.9353,-0.82849 7.66349,-0.82849 10.06609,0 15.037,5.21946 4.97091,5.21945 4.97091,15.82406 z"
         style=""
         id="path4666" />
      <path
         d="m 888.57232,714.64711 q 0,-8.40912 -3.47964,-13.17291 -3.43821,-4.80521 -9.48615,-4.80521 -6.04794,0 -9.52758,4.80521 -3.43821,4.76379 -3.43821,13.17291 0,8.40913 3.43821,13.21434 3.47964,4.76379 9.52758,4.76379 6.04794,0 9.48615,-4.76379 3.47964,-4.80521 3.47964,-13.21434 z m -25.93158,-16.19688 q 2.4026,-4.14243 6.04794,-6.13079 3.68676,-2.02979 8.78194,-2.02979 8.45055,0 13.71143,6.71073 5.3023,6.71073 5.3023,17.64673 0,10.93601 -5.3023,17.64674 -5.26088,6.71073 -13.71143,6.71073 -5.09518,0 -8.78194,-1.98837 -3.64534,-2.02979 -6.04794,-6.17221 l 0,6.95927 -7.66349,0 0,-64.45614 7.66349,0 0,25.1031 z"
         style=""
         id="path4668" />
      <path
         d="m 927.09688,696.75183 q -6.13079,0 -9.69328,4.80522 -3.56248,4.76379 -3.56248,13.09006 0,8.32628 3.52106,13.13149 3.56249,4.76379 9.7347,4.76379 6.08936,0 9.65185,-4.80521 3.56249,-4.80522 3.56249,-13.09007 0,-8.24342 -3.56249,-13.04864 -3.56249,-4.84664 -9.65185,-4.84664 z m 0,-6.46218 q 9.94182,0 15.61694,6.46218 5.67513,6.46219 5.67513,17.89528 0,11.39167 -5.67513,17.89528 -5.67512,6.46219 -15.61694,6.46219 -9.98325,0 -15.65837,-6.46219 -5.6337,-6.50361 -5.6337,-17.89528 0,-11.43309 5.6337,-17.89528 5.67512,-6.46218 15.65837,-6.46218 z"
         style=""
         id="path4670" />
      <path
         d="m 960.19482,719.49375 0,-28.08564 7.62206,0 0,27.79567 q 0,6.58646 2.56831,9.9004 2.5683,3.27251 7.70491,3.27251 6.17221,0 9.7347,-3.9353 3.60391,-3.9353 3.60391,-10.72888 l 0,-26.3044 7.62206,0 0,46.39516 -7.62206,0 0,-7.12497 q -2.77543,4.22527 -6.46218,6.29649 -3.64534,2.02979 -8.49198,2.02979 -7.99488,0 -12.1373,-4.97091 -4.14243,-4.97092 -4.14243,-14.53992 z m 19.17943,-29.2041 0,0 z"
         style=""
         id="path4672" />
      <path
         d="m 1066.9037,673.34713 0,6.33791 -7.2906,0 q -4.101,0 -5.7166,1.65697 -1.5741,1.65697 -1.5741,5.96509 l 0,4.10101 12.5515,0 0,5.92366 -12.5515,0 0,40.4715 -7.6635,0 0,-40.4715 -20.9192,0 0,40.4715 -7.6635,0 0,-40.4715 -7.2907,0 0,-5.92366 7.2907,0 0,-3.2311 q 0,-7.74633 3.6039,-11.26739 3.6039,-3.56249 11.4331,-3.56249 l 7.2078,0 0,6.33791 -7.2907,0 q -4.101,0 -5.7165,1.65697 -1.5741,1.65697 -1.5741,5.96509 l 0,4.10101 20.9192,0 0,-3.2311 q 0,-7.74633 3.6039,-11.26739 3.6039,-3.56249 11.4331,-3.56249 l 7.2078,0 z"
         style=""
         id="path4674" />
      <path
         d="m 1113.0089,712.70017 0,3.72819 -35.0449,0 q 0.4971,7.87061 4.7224,12.01303 4.2667,4.101 11.8473,4.101 4.391,0 8.492,-1.07703 4.1424,-1.07703 8.202,-3.23109 l 0,7.20782 q -4.101,1.73982 -8.4092,2.65115 -4.3081,0.91134 -8.7405,0.91134 -11.1017,0 -17.6053,-6.46219 -6.4622,-6.46218 -6.4622,-17.48103 0,-11.39167 6.1308,-18.06098 6.1722,-6.71073 16.6111,-6.71073 9.3619,0 14.7885,6.04794 5.468,6.00652 5.468,16.36258 z m -7.6221,-2.23691 q -0.083,-6.25506 -3.521,-9.98324 -3.3968,-3.72819 -9.0305,-3.72819 -6.3793,0 -10.2318,3.60392 -3.811,3.60391 -4.391,10.14894 l 27.1743,-0.0414 z"
         style=""
         id="path4676" />
      <path
         d="m 1192.2121,712.70017 0,3.72819 -35.0449,0 q 0.4971,7.87061 4.7223,12.01303 4.2667,4.101 11.8474,4.101 4.3909,0 8.4919,-1.07703 4.1425,-1.07703 8.2021,-3.23109 l 0,7.20782 q -4.1011,1.73982 -8.4092,2.65115 -4.3081,0.91134 -8.7405,0.91134 -11.1017,0 -17.6053,-6.46219 -6.4622,-6.46218 -6.4622,-17.48103 0,-11.39167 6.1308,-18.06098 6.1722,-6.71073 16.6111,-6.71073 9.3619,0 14.7885,6.04794 5.468,6.00652 5.468,16.36258 z m -7.6221,-2.23691 q -0.083,-6.25506 -3.521,-9.98324 -3.3968,-3.72819 -9.0305,-3.72819 -6.3794,0 -10.2318,3.60392 -3.811,3.60391 -4.391,10.14894 l 27.1743,-0.0414 z"
         style=""
         id="path4678" />
      <path
         d="m 1234.2992,692.77511 0,7.20782 q -3.2311,-1.65697 -6.7108,-2.48546 -3.4796,-0.82848 -7.2078,-0.82848 -5.6751,0 -8.5334,1.73982 -2.8168,1.73981 -2.8168,5.21945 0,2.65115 2.0297,4.18385 2.0298,1.49127 8.1606,2.85827 l 2.6098,0.57994 q 8.1191,1.73982 11.5159,4.92949 3.4382,3.14824 3.4382,8.82337 0,6.46218 -5.1366,10.23179 -5.0952,3.76961 -14.0428,3.76961 -3.7282,0 -7.7878,-0.74564 -4.0181,-0.70421 -8.492,-2.15406 l 0,-7.87061 q 4.2253,2.19548 8.3263,3.31394 4.101,1.07703 8.1192,1.07703 5.3851,0 8.2848,-1.82267 2.8997,-1.86409 2.8997,-5.21945 0,-3.10682 -2.1126,-4.76379 -2.0712,-1.65697 -9.1548,-3.18967 l -2.6511,-0.62136 q -7.0836,-1.49128 -10.2318,-4.55667 -3.1483,-3.10682 -3.1483,-8.49197 0,-6.54504 4.6396,-10.10752 4.6395,-3.56249 13.1729,-3.56249 4.2252,0 7.9534,0.62136 3.7282,0.62137 6.8765,1.8641 z"
         style=""
         id="path4680" />
      <path
         d="m 1256.5025,678.23519 0,13.17292 15.6998,0 0,5.92366 -15.6998,0 0,25.18595 q 0,5.67513 1.5327,7.29067 1.5742,1.61555 6.3379,1.61555 l 7.8292,0 0,6.37933 -7.8292,0 q -8.8233,0 -12.1787,-3.27251 -3.3553,-3.31394 -3.3553,-12.01304 l 0,-25.18595 -5.5923,0 0,-5.92366 5.5923,0 0,-13.17292 7.6634,0 z"
         style=""
         id="path4682" />
      <path
         d="m 1338.854,692.77511 0,7.20782 q -3.2311,-1.65697 -6.7108,-2.48546 -3.4796,-0.82848 -7.2078,-0.82848 -5.6751,0 -8.5334,1.73982 -2.8168,1.73981 -2.8168,5.21945 0,2.65115 2.0298,4.18385 2.0297,1.49127 8.1605,2.85827 l 2.6098,0.57994 q 8.1191,1.73982 11.5159,4.92949 3.4382,3.14824 3.4382,8.82337 0,6.46218 -5.1366,10.23179 -5.0952,3.76961 -14.0428,3.76961 -3.7282,0 -7.7878,-0.74564 -4.0181,-0.70421 -8.4919,-2.15406 l 0,-7.87061 q 4.2252,2.19548 8.3262,3.31394 4.101,1.07703 8.1192,1.07703 5.3851,0 8.2848,-1.82267 2.8997,-1.86409 2.8997,-5.21945 0,-3.10682 -2.1126,-4.76379 -2.0712,-1.65697 -9.1548,-3.18967 l -2.6511,-0.62136 q -7.0836,-1.49128 -10.2318,-4.55667 -3.1482,-3.10682 -3.1482,-8.49197 0,-6.54504 4.6395,-10.10752 4.6395,-3.56249 13.1729,-3.56249 4.2253,0 7.9534,0.62136 3.7282,0.62137 6.8765,1.8641 z"
         style=""
         id="path4684" />
      <path
         d="m 1372.8218,742.1114 q -3.2311,8.28485 -6.2964,10.81173 -3.0654,2.52688 -8.2021,2.52688 l -6.0893,0 0,-6.37934 4.4738,0 q 3.1482,0 4.8881,-1.49127 1.7398,-1.49128 3.8524,-7.04213 l 1.367,-3.47963 -18.7652,-45.64953 8.0778,0 14.4985,36.28764 14.4984,-36.28764 8.0778,0 -20.3808,50.70329 z"
         style=""
         id="path4686" />
      <path
         d="m 1442.2904,709.80048 0,28.00279 -7.6221,0 0,-27.75425 q 0,-6.58646 -2.5683,-9.85897 -2.5683,-3.27252 -7.7049,-3.27252 -6.1722,0 -9.7347,3.93531 -3.5625,3.9353 -3.5625,10.72888 l 0,26.22155 -7.6635,0 0,-46.39516 7.6635,0 0,7.20782 q 2.734,-4.18385 6.4208,-6.25507 3.7281,-2.07121 8.5748,-2.07121 7.9949,0 12.0959,4.97091 4.101,4.92949 4.101,14.53992 z"
         style=""
         id="path4688" />
      <path
         d="m 1475.554,696.75183 q -6.1308,0 -9.6933,4.80522 -3.5625,4.76379 -3.5625,13.09006 0,8.32628 3.5211,13.13149 3.5625,4.76379 9.7347,4.76379 6.0894,0 9.6519,-4.80521 3.5624,-4.80522 3.5624,-13.09007 0,-8.24342 -3.5624,-13.04864 -3.5625,-4.84664 -9.6519,-4.84664 z m 0,-6.46218 q 9.9418,0 15.6169,6.46218 5.6752,6.46219 5.6752,17.89528 0,11.39167 -5.6752,17.89528 -5.6751,6.46219 -15.6169,6.46219 -9.9832,0 -15.6584,-6.46219 -5.6337,-6.50361 -5.6337,-17.89528 0,-11.43309 5.6337,-17.89528 5.6752,-6.46218 15.6584,-6.46218 z"
         style=""
         id="path4690" />
      <path
         d="m 1548.0051,709.80048 0,28.00279 -7.6221,0 0,-27.75425 q 0,-6.58646 -2.5683,-9.85897 -2.5683,-3.27252 -7.7049,-3.27252 -6.1722,0 -9.7347,3.93531 -3.5625,3.9353 -3.5625,10.72888 l 0,26.22155 -7.6635,0 0,-46.39516 7.6635,0 0,7.20782 q 2.734,-4.18385 6.4208,-6.25507 3.7282,-2.07121 8.5748,-2.07121 7.9949,0 12.0959,4.97091 4.101,4.92949 4.101,14.53992 z"
         style=""
         id="path4692" />
      <path
         d="m 1582.5942,742.1114 q -3.2311,8.28485 -6.2964,10.81173 -3.0654,2.52688 -8.2021,2.52688 l -6.0893,0 0,-6.37934 4.4738,0 q 3.1482,0 4.8881,-1.49127 1.7398,-1.49128 3.8524,-7.04213 l 1.367,-3.47963 -18.7652,-45.64953 8.0778,0 14.4985,36.28764 14.4984,-36.28764 8.0778,0 -20.3808,50.70329 z"
         style=""
         id="path4694" />
      <path
         d="m 1649.6188,700.31432 q 2.8583,-5.13661 6.835,-7.58064 3.9767,-2.44403 9.3619,-2.44403 7.2492,0 11.1845,5.09518 3.9353,5.05376 3.9353,14.41565 l 0,28.00279 -7.6635,0 0,-27.75425 q 0,-6.6693 -2.3611,-9.9004 -2.3612,-3.23109 -7.2079,-3.23109 -5.9236,0 -9.3618,3.93531 -3.4383,3.9353 -3.4383,10.72888 l 0,26.22155 -7.6634,0 0,-27.75425 q 0,-6.71073 -2.3612,-9.9004 -2.3612,-3.23109 -7.2907,-3.23109 -5.8408,0 -9.279,3.97673 -3.4382,3.9353 -3.4382,10.68746 l 0,26.22155 -7.6635,0 0,-46.39516 7.6635,0 0,7.20782 q 2.6097,-4.2667 6.255,-6.29649 3.6453,-2.02979 8.6577,-2.02979 5.0537,0 8.5748,2.5683 3.5625,2.56831 5.2609,7.45637 z"
         style=""
         id="path4696" />
      <path
         d="m 1735.864,712.70017 0,3.72819 -35.0449,0 q 0.4971,7.87061 4.7224,12.01303 4.2667,4.101 11.8473,4.101 4.391,0 8.492,-1.07703 4.1424,-1.07703 8.202,-3.23109 l 0,7.20782 q -4.101,1.73982 -8.4092,2.65115 -4.3081,0.91134 -8.7405,0.91134 -11.1017,0 -17.6053,-6.46219 -6.4622,-6.46218 -6.4622,-17.48103 0,-11.39167 6.1308,-18.06098 6.1722,-6.71073 16.6111,-6.71073 9.3619,0 14.7885,6.04794 5.468,6.00652 5.468,16.36258 z m -7.6221,-2.23691 q -0.083,-6.25506 -3.521,-9.98324 -3.3968,-3.72819 -9.0305,-3.72819 -6.3793,0 -10.2318,3.60392 -3.811,3.60391 -4.391,10.14894 l 27.1743,-0.0414 z"
         style=""
         id="path4698" />
      <path
         d="m 1805.9125,698.45023 0,-25.1031 7.6221,0 0,64.45614 -7.6221,0 0,-6.95927 q -2.4026,4.14242 -6.0894,6.17221 -3.6453,1.98837 -8.7819,1.98837 -8.4091,0 -13.7114,-6.71073 -5.2609,-6.71073 -5.2609,-17.64674 0,-10.936 5.2609,-17.64673 5.3023,-6.71073 13.7114,-6.71073 5.1366,0 8.7819,2.02979 3.6868,1.98836 6.0894,6.13079 z m -25.973,16.19688 q 0,8.40913 3.4382,13.21434 3.4796,4.76379 9.5276,4.76379 6.0479,0 9.5276,-4.76379 3.4796,-4.80521 3.4796,-13.21434 0,-8.40912 -3.4796,-13.17291 -3.4797,-4.80521 -9.5276,-4.80521 -6.048,0 -9.5276,4.80521 -3.4382,4.76379 -3.4382,13.17291 z"
         style=""
         id="path4700" />
      <path
         d="m 1868.9187,712.70017 0,3.72819 -35.0449,0 q 0.4971,7.87061 4.7223,12.01303 4.2667,4.101 11.8474,4.101 4.391,0 8.492,-1.07703 4.1424,-1.07703 8.202,-3.23109 l 0,7.20782 q -4.101,1.73982 -8.4092,2.65115 -4.3081,0.91134 -8.7405,0.91134 -11.1017,0 -17.6053,-6.46219 -6.4622,-6.46218 -6.4622,-17.48103 0,-11.39167 6.1308,-18.06098 6.1722,-6.71073 16.6111,-6.71073 9.3619,0 14.7885,6.04794 5.468,6.00652 5.468,16.36258 z m -7.6221,-2.23691 q -0.083,-6.25506 -3.521,-9.98324 -3.3968,-3.72819 -9.0305,-3.72819 -6.3793,0 -10.2318,3.60392 -3.811,3.60391 -4.391,10.14894 l 27.1743,-0.0414 z"
         style=""
         id="path4702" />
      <path
         d="m 1938.9672,714.06717 q 0,-8.28485 -3.4382,-12.84152 -3.3968,-4.55666 -9.569,-4.55666 -6.1308,0 -9.569,4.55666 -3.3968,4.55667 -3.3968,12.84152 0,8.24343 3.3968,12.8001 3.4382,4.55667 9.569,4.55667 6.1722,0 9.569,-4.55667 3.4382,-4.55667 3.4382,-12.8001 z m 7.622,17.97813 q 0,11.84734 -5.2608,17.60531 -5.2609,5.7994 -16.1141,5.7994 -4.0181,0 -7.5806,-0.62137 -3.5625,-0.57994 -6.9179,-1.82267 l 0,-7.41494 q 3.3554,1.82267 6.6279,2.69258 3.2725,0.86991 6.6693,0.86991 7.4978,0 11.226,-3.93531 3.7282,-3.89388 3.7282,-11.80591 l 0,-3.76961 q -2.3612,4.10101 -6.048,6.13079 -3.6867,2.02979 -8.8233,2.02979 -8.5334,0 -13.7529,-6.50361 -5.2194,-6.5036 -5.2194,-17.23249 0,-10.7703 5.2194,-17.27391 5.2195,-6.50361 13.7529,-6.50361 5.1366,0 8.8233,2.02979 3.6868,2.02979 6.048,6.13079 l 0,-7.04212 7.622,0 0,40.63719 z"
         style=""
         id="path4704" />
      <path
         d="m 2001.9735,712.70017 0,3.72819 -35.0449,0 q 0.4971,7.87061 4.7224,12.01303 4.2667,4.101 11.8473,4.101 4.391,0 8.492,-1.07703 4.1424,-1.07703 8.202,-3.23109 l 0,7.20782 q -4.101,1.73982 -8.4092,2.65115 -4.3081,0.91134 -8.7405,0.91134 -11.1017,0 -17.6053,-6.46219 -6.4622,-6.46218 -6.4622,-17.48103 0,-11.39167 6.1308,-18.06098 6.1722,-6.71073 16.6111,-6.71073 9.3619,0 14.7885,6.04794 5.468,6.00652 5.468,16.36258 z m -7.6221,-2.23691 q -0.083,-6.25506 -3.521,-9.98324 -3.3968,-3.72819 -9.0305,-3.72819 -6.3793,0 -10.2318,3.60392 -3.811,3.60391 -4.391,10.14894 l 27.1743,-0.0414 z m -7.332,-40.51292 8.2434,0 -13.5043,15.57552 -6.3379,0 11.5988,-15.57552 z"
         style=""
         id="path4706" />
      <path
         d="m 2053.0495,709.80048 0,28.00279 -7.6221,0 0,-27.75425 q 0,-6.58646 -2.5683,-9.85897 -2.5683,-3.27252 -7.7049,-3.27252 -6.1722,0 -9.7347,3.93531 -3.5625,3.9353 -3.5625,10.72888 l 0,26.22155 -7.6634,0 0,-46.39516 7.6634,0 0,7.20782 q 2.734,-4.18385 6.4208,-6.25507 3.7282,-2.07121 8.5748,-2.07121 7.9949,0 12.0959,4.97091 4.101,4.92949 4.101,14.53992 z"
         style=""
         id="path4708" />
      <path
         d="m 2068.3351,691.40811 7.6221,0 0,46.39516 -7.6221,0 0,-46.39516 z m 0,-18.06098 7.6221,0 0,9.65185 -7.6221,0 0,-9.65185 z"
         style=""
         id="path4710" />
      <path
         d="m 2131.5486,712.70017 0,3.72819 -35.0449,0 q 0.4971,7.87061 4.7223,12.01303 4.2667,4.101 11.8474,4.101 4.3909,0 8.4919,-1.07703 4.1425,-1.07703 8.202,-3.23109 l 0,7.20782 q -4.101,1.73982 -8.4091,2.65115 -4.3081,0.91134 -8.7405,0.91134 -11.1017,0 -17.6053,-6.46219 -6.4622,-6.46218 -6.4622,-17.48103 0,-11.39167 6.1308,-18.06098 6.1722,-6.71073 16.6111,-6.71073 9.3619,0 14.7885,6.04794 5.468,6.00652 5.468,16.36258 z m -7.6221,-2.23691 q -0.083,-6.25506 -3.521,-9.98324 -3.3968,-3.72819 -9.0305,-3.72819 -6.3794,0 -10.2318,3.60392 -3.8111,3.60391 -4.391,10.14894 l 27.1743,-0.0414 z"
         style=""
         id="path4712" />
      <path
         d="m 2204.4552,693.18935 0,7.12497 q -3.2311,-1.78124 -6.5036,-2.65115 -3.2311,-0.91134 -6.545,-0.91134 -7.415,0 -11.516,4.72237 -4.101,4.68094 -4.101,13.17291 0,8.49198 4.101,13.21434 4.101,4.68094 11.516,4.68094 3.3139,0 6.545,-0.86991 3.2725,-0.91133 6.5036,-2.69257 l 0,7.04212 q -3.1896,1.49127 -6.6279,2.23691 -3.3968,0.74564 -7.2492,0.74564 -10.4803,0 -16.6526,-6.58646 -6.1722,-6.58646 -6.1722,-17.77101 0,-11.35024 6.2137,-17.85385 6.255,-6.50361 17.1082,-6.50361 3.521,0 6.8764,0.74564 3.3554,0.70421 6.5036,2.15406 z"
         style=""
         id="path4714" />
      <path
         d="m 2244.6782,698.53308 q -1.2842,-0.74564 -2.8169,-1.07703 -1.4912,-0.37282 -3.3139,-0.37282 -6.4622,0 -9.9418,4.22527 -3.4383,4.18385 -3.4383,12.05446 l 0,24.44031 -7.6634,0 0,-46.39516 7.6634,0 0,7.20782 q 2.4027,-4.22528 6.2551,-6.25507 3.8525,-2.07121 9.3619,-2.07121 0.7871,0 1.7398,0.12427 0.9528,0.0829 2.1126,0.28997 l 0.041,7.82919 z"
         style=""
         id="path4716" />
      <path
         d="m 2290.6177,712.70017 0,3.72819 -35.0449,0 q 0.497,7.87061 4.7223,12.01303 4.2667,4.101 11.8474,4.101 4.3909,0 8.4919,-1.07703 4.1425,-1.07703 8.202,-3.23109 l 0,7.20782 q -4.101,1.73982 -8.4091,2.65115 -4.3081,0.91134 -8.7405,0.91134 -11.1017,0 -17.6053,-6.46219 -6.4622,-6.46218 -6.4622,-17.48103 0,-11.39167 6.1308,-18.06098 6.1722,-6.71073 16.6111,-6.71073 9.3619,0 14.7885,6.04794 5.468,6.00652 5.468,16.36258 z m -7.6221,-2.23691 q -0.083,-6.25506 -3.5211,-9.98324 -3.3967,-3.72819 -9.0304,-3.72819 -6.3794,0 -10.2318,3.60392 -3.8111,3.60391 -4.391,10.14894 l 27.1743,-0.0414 z m -7.3321,-40.51292 8.2434,0 -13.5043,15.57552 -6.3379,0 11.5988,-15.57552 z"
         style=""
         id="path4718" />
      <path
         d="m 2324.2128,714.48142 q -9.2376,0 -12.8001,2.11263 -3.5625,2.11264 -3.5625,7.20782 0,4.05958 2.6511,6.46219 2.6926,2.36118 7.2907,2.36118 6.3379,0 10.1489,-4.47382 3.8525,-4.51524 3.8525,-11.97161 l 0,-1.69839 -7.5806,0 z m 15.2027,-3.14825 0,26.4701 -7.6221,0 0,-7.04212 q -2.6097,4.22527 -6.5036,6.25506 -3.8939,1.98837 -9.5276,1.98837 -7.125,0 -11.3502,-3.97673 -4.1839,-4.01816 -4.1839,-10.72888 0,-7.82919 5.2195,-11.80592 5.2609,-3.97673 15.6583,-3.97673 l 10.6875,0 0,-0.74563 q 0,-5.26088 -3.4796,-8.11916 -3.4382,-2.8997 -9.6933,-2.8997 -3.9767,0 -7.7463,0.95276 -3.7697,0.95276 -7.2493,2.85828 l 0,-7.04213 q 4.1839,-1.61554 8.1192,-2.4026 3.9353,-0.82849 7.6634,-0.82849 10.0661,0 15.0371,5.21946 4.9709,5.21945 4.9709,15.82406 z"
         style=""
         id="path4720" />
      <path
         d="m 2362.6958,678.23519 0,13.17292 15.6998,0 0,5.92366 -15.6998,0 0,25.18595 q 0,5.67513 1.5327,7.29067 1.5742,1.61555 6.3379,1.61555 l 7.8292,0 0,6.37933 -7.8292,0 q -8.8233,0 -12.1787,-3.27251 -3.3553,-3.31394 -3.3553,-12.01304 l 0,-25.18595 -5.5923,0 0,-5.92366 5.5923,0 0,-13.17292 7.6634,0 z"
         style=""
         id="path4722" />
      <path
         d="m 2388.4618,691.40811 7.6221,0 0,46.39516 -7.6221,0 0,-46.39516 z m 0,-18.06098 7.6221,0 0,9.65185 -7.6221,0 0,-9.65185 z"
         style=""
         id="path4724" />
      <path
         d="m 2435.4783,673.34713 0,6.33791 -7.2907,0 q -4.101,0 -5.7165,1.65697 -1.5742,1.65697 -1.5742,5.96509 l 0,4.10101 12.5516,0 0,5.92366 -12.5516,0 0,40.4715 -7.6634,0 0,-40.4715 -7.2907,0 0,-5.92366 7.2907,0 0,-3.2311 q 0,-7.74633 3.6039,-11.26739 3.6039,-3.56249 11.4331,-3.56249 l 7.2078,0 z"
         style=""
         id="path4726" />
    </g>
    <path
       style="fill:#b7b7b7;fill-opacity:1;stroke:#000000;stroke-width:2.2;stroke-miterlimit:4;stroke-dasharray:none;stroke-opacity:1"
       d="m 207.48225,890.87061 c -23.62603,-3.04502 -35.92809,-19.73076 -34.14248,-46.30877 0.65556,-9.7579 2.2329,-17.48179 6.41599,-31.41797 16.6899,-55.60311 27.88822,-200.0147 27.92718,-360.14395 0.008,-32.49077 -0.0988,-34.37563 -2.19033,-38.69619 -2.84861,-5.88444 -8.64199,-10.76305 -19.25905,-16.21806 -25.71496,-13.21223 -39.78284,-28.57941 -47.90485,-52.32927 -4.73471,-13.84498 -5.35159,-26.53133 -2.29899,-47.27958 4.17381,-28.36899 13.30052,-56.94009 25.0014,-78.26674 5.07552,-9.25091 18.21049,-28.94175 23.11769,-34.65609 18.30613,-21.31714 45.12371,-23.66854 64.08428,-5.619 28.15537,26.80256 45.2087,63.7533 53.67442,116.30044 3.08871,19.17178 3.2643,25.55365 1.05213,38.23922 -4.29068,24.60462 -20.08364,46.82069 -41.57494,58.48375 -14.59659,7.92138 -21.34342,12.8711 -25.11869,18.42794 l -3.54281,5.21469 0.58069,74.76545 c 0.5135,66.11686 1.4163,102.21279 3.30533,132.15585 3.62316,57.43042 7.01066,95.3298 11.20048,125.3111 3.33068,23.83349 9.00584,53.48741 12.10424,63.24731 4.69813,14.79894 5.70558,19.94662 6.37607,32.57885 0.5039,9.49361 0.26425,13.58108 -1.10926,18.91959 -4.25256,16.52867 -14.642,25.01585 -33.5205,27.38299 -9.77002,1.22507 -14.08937,1.20871 -24.178,-0.0917 z"
       id="path4248"
       inkscape:connector-curvature="0"
       inkscape:export-xdpi="90"
       inkscape:export-ydpi="90" />
    <g
       id="g4244"
       style="font-style:normal;font-weight:normal;font-size:84.83687592px;line-height:125%;font-family:sans-serif;letter-spacing:0px;word-spacing:0px;fill:#856c4e;fill-opacity:1;stroke:none;stroke-width:1px;stroke-linecap:butt;stroke-linejoin:miter;stroke-opacity:1"
       transform="matrix(1.72767,0,0,1.72767,1855.3689,-200.56348)">
      <g
         transform="matrix(0.88899612,0,0,0.88899612,-2555.9095,55.06081)"
         style="font-style:normal;font-weight:normal;font-size:40px;line-height:125%;font-family:sans-serif;letter-spacing:0px;word-spacing:0px;fill:#856c4e;fill-opacity:1;stroke:none;stroke-width:1px;stroke-linecap:butt;stroke-linejoin:miter;stroke-opacity:1"
         id="flowRoot4327">
        <path
           d="m 3341.1914,629.99497 3.8086,0 6.8359,18.35937 6.836,-18.35937 3.8086,0 -8.2032,21.875 -4.8828,0 -8.2031,-21.875 z"
           style=""
           id="path4336" />
        <path
           d="m 3368.6328,648.54965 6.4453,0 0,-22.24609 -7.0117,1.40625 0,-3.59375 6.9727,-1.40625 3.9453,0 0,25.83984 6.4453,0 0,3.32032 -16.7969,0 0,-3.32032 z"
           style=""
           id="path4338" />
        <path
           d="m 3393.418,646.90903 4.1211,0 0,4.96094 -4.1211,0 0,-4.96094 z"
           style=""
           id="path4340" />
        <path
           d="m 3414.5898,625.30747 q -3.0468,0 -4.5898,3.00781 -1.5234,2.98828 -1.5234,9.00391 0,5.99609 1.5234,9.0039 1.543,2.98828 4.5898,2.98828 3.0665,0 4.5899,-2.98828 1.543,-3.00781 1.543,-9.0039 0,-6.01563 -1.543,-9.00391 -1.5234,-3.00781 -4.5899,-3.00781 z m 0,-3.125 q 4.9024,0 7.4805,3.88672 2.5977,3.86718 2.5977,11.25 0,7.36328 -2.5977,11.25 -2.5781,3.86718 -7.4805,3.86718 -4.9023,0 -7.5,-3.86718 -2.5781,-3.88672 -2.5781,-11.25 0,-7.38282 2.5781,-11.25 2.5977,-3.88672 7.5,-3.88672 z"
           style=""
           id="path4342" />
      </g>
    </g>
  </g>
  <g
     inkscape:groupmode="layer"
     id="layer6"
     inkscape:label="Bouche"
     transform="translate(0,-28.362139)">
    <path
       sodipodi:nodetypes="ssssss"
       inkscape:connector-curvature="0"
       id="path4205"
       d="m 584.06463,718.32756 c 2.06613,-8.75227 17.18268,-6.75217 26.17315,-6.54323 9.10608,0.21179 25.65682,-1.24196 26.1732,7.85188 0.37667,6.63361 -11.77975,6.68762 -18.32124,7.85198 -8.1712,1.45448 -17.15879,1.77451 -24.86448,-1.30865 -3.73395,-1.49399 -10.0846,-3.93782 -9.16063,-7.85198 z"
       style="fill:#d56e49;fill-opacity:1;fill-rule:evenodd;stroke:#000000;stroke-width:3;stroke-linecap:butt;stroke-linejoin:miter;stroke-miterlimit:4;stroke-dasharray:none;stroke-opacity:1"
       inkscape:export-xdpi="90"
       inkscape:export-ydpi="90" />
  </g>
  <g
     inkscape:groupmode="layer"
     id="layer4"
     inkscape:label="Cheveux bas"
     transform="translate(0,-28.362139)">
    <path
       sodipodi:nodetypes="ssscssscccssscscsccsssss"
       inkscape:connector-curvature="0"
       id="path3381"
       d="m 352.75758,562.63723 c -12.91816,0.0586 -21.50575,14.32156 -32.38769,21.28333 -16.22229,10.37833 -33.0938,19.74547 -49.04419,30.53697 -9.50425,6.43023 -27.76084,20.35796 -27.76084,20.35796 0,0 17.77357,0.6603 20.35796,7.40288 3.75359,9.79271 -7.64126,20.1022 -14.80583,27.76085 -11.16825,11.93848 -27.16144,18.32109 -41.64124,25.91019 -8.93254,4.68174 -27.76091,12.02972 -27.76091,12.02972 0,0 0.97059,10.6527 4.62685,13.88038 8.12684,-0.3063 11.8361,5.68518 20.35796,2.77611 3.1347,-1.29845 7.6895,-2.30539 10.17899,0 2.95082,2.73258 2.04977,8.16835 0.92537,12.02973 -1.72484,5.92303 -6.71877,10.46706 -11.10436,14.80575 -4.07883,4.03522 -13.88045,10.17898 -13.88045,10.17898 0,0 22.04967,-8.22447 29.61157,-1.85073 8.77734,7.39819 3.70148,34.23843 3.70148,34.23843 0,0 5.51756,-17.21801 11.10435,-24.05944 11.86264,-14.52669 27.77947,-26.73443 45.34271,-33.31299 9.64124,-3.51931 19.06314,1.85156 24.05946,-9.25362 4.89141,-11.26822 11.288,-21.83855 17.58186,-32.3877 9.24907,-15.50232 19.30705,-30.52097 29.61158,-45.34277 10.0717,-14.4869 21.50107,-28.0035 31.46234,-42.56661 3.9134,-5.72128 12.60015,-10.81356 11.10433,-17.58187 -3.56346,-16.124 -25.12837,-26.9092 -41.6413,-26.83555 z"
       style="fill:#843d00;fill-opacity:1;fill-rule:evenodd;stroke:#000000;stroke-width:3;stroke-linecap:butt;stroke-linejoin:round;stroke-miterlimit:4;stroke-dasharray:none;stroke-opacity:1"
       inkscape:export-xdpi="90"
       inkscape:export-ydpi="90" />
    <path
       style="fill:#a2591a;fill-opacity:1;fill-rule:evenodd;stroke:none;stroke-width:3;stroke-linecap:butt;stroke-linejoin:miter;stroke-miterlimit:4;stroke-dasharray:none;stroke-opacity:1"
       d="m 200.34485,722.06891 c 2.2036,-0.22719 3.51092,-1.22525 7.44465,-2.22567 4.15531,-1.05683 19.99374,-8.45575 29.97075,-15.18566 9.94748,-6.70997 18.76702,-16.15742 27.06683,-24.82285 6.74706,-7.04429 13.16241,-13.28231 17.62819,-21.9542 3.75226,-7.28642 8.8682,-15.42428 8.81405,-23.61994 -0.0143,-2.6354 0.92031,-3.3336 1.27238,-5.94539 0.73768,-5.47263 6.25244,-5.98658 10.8499,-9.04542 12.09444,-8.04675 19.21349,-11.67979 28.75561,-18.13707 8.70061,-5.88779 15.62451,-14.26183 22.92582,-21.81546 2.59472,-2.68443 5.57998,-5.55024 5.80665,-9.27678 0.2521,-4.14499 -7.66157,0.22205 -11.17229,-1.99627 -3.45018,-2.17979 -8.16416,2.93565 -12.80661,6.4915 -7.62662,5.84162 -9.53972,9.05158 -17.56187,14.33695 -10.73962,7.07581 -21.81589,12.93641 -32.80234,20.0098 -10.61282,6.83278 -14.6649,9.26372 -24.81626,16.76495 -2.8285,2.09008 -8.55725,6.59205 -8.55725,6.59205 0,0 5.87686,2.25814 10.22083,4.30791 2.76152,1.30322 3.51752,3.2694 4.18743,6.24857 1.00597,4.47375 -0.93622,10.19255 -3.13828,14.21464 -2.90371,5.30356 -8.03086,10.98483 -12.3639,15.20194 -5.61496,5.46478 -12.56794,10.73705 -19.37068,14.62474 -8.59053,4.90943 -16.82563,8.8342 -25.56201,13.41774 -8.04039,4.21836 -23.38632,10.05982 -23.38632,10.05982 0.50126,4.74982 1.63974,6.73488 2.8145,8.56445 0.044,0.4507 3.76385,-0.10922 5.60997,-0.0865 1.39644,0.0143 2.41576,0.85252 2.41576,0.85252 1.95532,1.39681 1.94756,1.80918 2.62111,2.22119 0,0 0.62878,0.26603 1.15908,0.34591 1.11868,0.16855 1.9743,-0.14367 1.9743,-0.14367 z"
       id="path4291"
       inkscape:connector-curvature="0"
       sodipodi:nodetypes="sssssssssssssssscssssssccscsss"
       inkscape:export-xdpi="90"
       inkscape:export-ydpi="90" />
    <g
       id="g4609"
       style="stroke-width:5;stroke-miterlimit:4;stroke-dasharray:none"
       inkscape:export-xdpi="90"
       inkscape:export-ydpi="90">
      <path
         sodipodi:nodetypes="cc"
         inkscape:connector-curvature="0"
         id="path4283"
         d="m 278.58839,637.73868 c 24.62535,-6.17029 -0.96282,38.37302 -45.37657,69.19228"
         style="fill:none;fill-rule:evenodd;stroke:#522600;stroke-width:5;stroke-linecap:round;stroke-linejoin:miter;stroke-miterlimit:4;stroke-dasharray:none;stroke-opacity:1" />
      <path
         sodipodi:nodetypes="cc"
         inkscape:connector-curvature="0"
         id="path4285"
         d="m 350.29037,584.65635 c -14.46138,17.70777 -32.73551,25.36803 -55.07927,40.84279"
         style="fill:none;fill-rule:evenodd;stroke:#522600;stroke-width:5;stroke-linecap:round;stroke-linejoin:miter;stroke-miterlimit:4;stroke-dasharray:none;stroke-opacity:1" />
    </g>
  </g>
  <g
     inkscape:groupmode="layer"
     id="layer2"
     inkscape:label="Oreille"
     transform="translate(0,-28.362139)">
    <path
       sodipodi:nodetypes="ssssssssssssss"
       inkscape:connector-curvature="0"
       id="path3377"
       d="m 414.79936,615.16795 c 8.94927,-8.64073 1.21493,-24.85722 1.30865,-37.29676 0.0821,-10.90737 1.24269,-21.97507 -0.65442,-32.71653 -1.52353,-8.62622 -4.21331,-17.22877 -8.50627,-24.86447 -3.33937,-5.9396 -7.89924,-11.28559 -13.08664,-15.70395 -5.21122,-4.43864 -11.10097,-8.53344 -17.66686,-10.46926 -5.44339,-1.60487 -11.54275,-2.16666 -17.01259,-0.65443 -5.77259,1.59593 -11.60884,4.91287 -15.04958,9.81498 -4.37665,6.2356 -4.88261,14.63706 -5.23466,22.24718 -0.43751,9.45948 0.95621,19.14437 3.92601,28.13622 2.57121,7.78512 6.69957,15.15635 11.77791,21.59289 7.46108,9.45654 17.22909,16.93256 26.82751,24.21019 7.81135,5.92268 15.44801,12.97913 24.86454,15.70386 2.72371,0.78811 6.4666,1.96962 8.5064,8e-5 z"
       style="fill:#e19d61;fill-opacity:1;fill-rule:evenodd;stroke:#000000;stroke-width:3;stroke-linecap:butt;stroke-linejoin:miter;stroke-miterlimit:4;stroke-dasharray:none;stroke-opacity:1"
       inkscape:export-xdpi="90"
       inkscape:export-ydpi="90" />
    <path
       style="display:inline;fill:#ad6e36;fill-opacity:1;fill-rule:evenodd;stroke:#522600;stroke-width:3;stroke-linecap:round;stroke-linejoin:miter;stroke-miterlimit:4;stroke-dasharray:none;stroke-opacity:1"
       d="m 362.47004,553.9389 c 0,0 -9.19726,-16.64808 -5.5059,-23.9669 3.2877,-6.51847 13.04677,-10.70098 20.08036,-8.74465 8.80226,2.44831 13.7177,13.46816 15.86993,22.34745 2.15795,8.90279 -6.03611,18.30078 -3.88651,27.20564 1.27221,5.27028 9.3924,13.27894 9.3924,13.27894"
       id="path4419"
       inkscape:connector-curvature="0"
       sodipodi:nodetypes="cssssc"
       inkscape:export-xdpi="90"
       inkscape:export-ydpi="90" />
  </g>
  <g
     inkscape:groupmode="layer"
     id="layer10"
     inkscape:label="Couverts">
    <path
       style="display:inline;fill:#b7b7b7;fill-opacity:1;stroke:#000000;stroke-width:2.2;stroke-miterlimit:4;stroke-dasharray:none;stroke-opacity:1"
       d="m 304.18005,905.15343 c -31.83152,-5.7147 -41.78852,-35.02835 -27.71469,-81.5926 13.1431,-43.48483 23.09709,-136.18026 27.70169,-257.96938 2.13836,-56.5581 2.92833,-165.39947 1.26193,-173.86955 -1.77626,-9.02855 -4.81803,-15.31164 -8.61812,-17.80155 -1.55248,-1.01723 -9.14515,-8.07579 -16.87259,-15.68569 -13.62064,-13.41344 -14.1354,-14.10437 -16.84781,-22.61369 -2.56799,-8.05623 -2.79638,-10.7009 -2.77927,-32.18417 0.013,-16.07849 0.99391,-33.84929 3.13375,-56.76116 1.71332,-18.34494 5.03028,-57.31704 7.37102,-86.60464 2.34074,-29.2876 4.49548,-54.4351 4.78829,-55.8834 0.42953,-2.1245 1.3195,-2.6333 4.60627,-2.6333 l 4.07387,0 0,95.2525 c 0,88.99675 0.13453,95.41454 2.04808,97.71933 3.1247,3.76352 8.46516,4.332 12.30696,1.31004 l 3.19996,-2.51709 0,-95.95298 0,-95.9531 4.38874,0.3633 4.38875,0.3632 0.58517,95.8412 0.58517,95.8412 3.11654,2.32664 c 3.60534,2.69157 7.89655,2.12683 11.54239,-1.51901 2.26317,-2.26316 2.3109,-4.28089 2.3109,-97.69303 l 0,-95.3822 4.09617,0 4.09616,0 0,94.27 c 0,80.5081 0.25031,94.75395 1.71465,97.58566 3.08496,5.9657 12.21106,5.9657 15.29604,0 1.46432,-2.83171 1.71464,-17.07756 1.71464,-97.58566 l 0,-94.27 3.45798,0 c 2.9904,0 3.54409,0.5143 4.09494,3.8036 0.35033,2.092 2.48574,26.4495 4.74536,54.1279 2.25962,27.6784 5.45799,65.8605 7.10748,84.84919 5.03601,57.97366 5.16683,60.32485 4.02336,72.30886 -0.59668,6.25347 -2.19975,14.97706 -3.56236,19.38575 -2.85805,9.24709 -5.94293,12.98777 -24.54809,29.76674 -6.75867,6.09526 -13.27093,12.95297 -14.47169,15.23932 -3.66398,6.97659 -4.46252,25.92832 -3.73273,88.58845 0.37485,32.18417 0.93253,64.04649 1.23931,70.80517 0.30676,6.75867 0.84568,21.7682 1.19758,33.3545 2.97036,97.79652 14.26745,204.56444 25.88104,244.59964 6.342,21.86256 6.71873,24.14495 6.76109,40.96165 0.0361,14.36434 -0.28637,17.20352 -2.61591,23.02543 -7.76105,19.39613 -31.21049,28.14396 -61.07202,22.78293 z"
       id="path4252-3"
       inkscape:connector-curvature="0"
       inkscape:export-xdpi="90"
       inkscape:export-ydpi="90" />
    <path
       style="display:inline;fill:#cacaca;fill-opacity:1;fill-rule:evenodd;stroke:none;stroke-width:1px;stroke-linecap:butt;stroke-linejoin:miter;stroke-opacity:1"
       d="m 267.11479,297.8724 c 0,0 -0.24462,25.09701 4.94975,36.06245 3.85555,8.13915 10.89398,14.79907 18.38477,19.79899 5.64454,3.76759 19.09189,7.07107 19.09189,7.07107 -32.15129,-29.28942 -33.13488,-44.19375 -42.42641,-62.93251 z"
       id="path4286"
       inkscape:connector-curvature="0"
       sodipodi:nodetypes="csscc"
       inkscape:export-xdpi="90"
       inkscape:export-ydpi="90" />
    <path
       transform="translate(0,-28.362139)"
       style="display:inline;fill:#d5d5d5;fill-rule:evenodd;stroke:none;stroke-width:1px;stroke-linecap:butt;stroke-linejoin:miter;stroke-opacity:1;fill-opacity:1"
       d="m 204,180.36214 c -59.48869,106.74327 -52.4183,173.86804 0,214 0,0 -44.25847,-30.48187 -54,-54 -7.52611,-18.16963 -4.77967,-39.92298 0,-59 9.27818,-37.03188 54,-101 54,-101 z"
       id="path4284"
       inkscape:connector-curvature="0"
       sodipodi:nodetypes="ccssc"
       inkscape:export-xdpi="90"
       inkscape:export-ydpi="90" />
    <path
       sodipodi:nodetypes="csscc"
       inkscape:connector-curvature="0"
       id="path4296"
       d="m 185.11479,790.8724 c 0,0 -6.74462,28.09701 -1.55025,39.06245 3.85555,8.13915 9.39398,16.79907 16.88477,21.79899 5.64454,3.76759 27.09189,2.07107 27.09189,2.07107 C 177.20607,832.5972 190.58259,811.3106 185.11479,790.8724 Z"
       style="display:inline;fill:#cacaca;fill-opacity:1;fill-rule:evenodd;stroke:none;stroke-width:1px;stroke-linecap:butt;stroke-linejoin:miter;stroke-opacity:1"
       inkscape:export-xdpi="90"
       inkscape:export-ydpi="90" />
    <path
       style="display:inline;fill:#cacaca;fill-opacity:1;fill-rule:evenodd;stroke:none;stroke-width:1px;stroke-linecap:butt;stroke-linejoin:miter;stroke-opacity:1"
       d="m 281.11479,834.3724 c 0,0 -6.74462,28.09701 -1.55025,39.06245 3.85555,8.13915 9.39398,16.79907 16.88477,21.79899 5.64454,3.76759 27.09189,2.07107 27.09189,2.07107 C 273.20607,876.0972 286.58259,854.8106 281.11479,834.3724 Z"
       id="path4298"
       inkscape:connector-curvature="0"
       sodipodi:nodetypes="csscc"
       inkscape:export-xdpi="90"
       inkscape:export-ydpi="90" />
  </g>
  <g
     inkscape:groupmode="layer"
     id="layer3"
     inkscape:label="Cheveux haut"
     transform="translate(0,-28.362139)">
    <path
       sodipodi:nodetypes="cssssssssssscscssscsssssssssssssscssscscsssssssssc"
       inkscape:connector-curvature="0"
       id="path3369"
       d="m 713.82809,233.03939 c 0,0 9.11738,-25.09497 7.85196,-37.95112 -1.20627,-12.25581 -6.31847,-24.72869 -14.39528,-34.02517 -6.67282,-7.68049 -16.36805,-12.98808 -26.1732,-15.70394 -14.71372,-4.07545 -31.19052,-4.42436 -45.8031,0 -15.05323,4.55773 -28.17227,15.01792 -39.25977,26.1732 -13.98759,14.07313 -22.04924,32.99838 -32.71651,49.72904 -9.37184,14.6989 -17.9938,29.87028 -27.48186,44.49444 -13.49981,20.80757 -27.29878,41.44028 -41.87707,61.50702 -10.05169,13.83605 -19.68337,28.11818 -31.40786,40.56842 -15.89521,16.87913 -33.09666,32.8798 -52.34633,45.80308 -15.387,10.3301 -32.8494,17.21317 -49.72911,24.86456 -21.02729,9.53143 -64.12433,26.17321 -64.12433,26.17321 0,0 18.37063,10.46237 19.62988,19.62987 1.08974,7.93347 -11.77791,20.93854 -11.77791,20.93854 0,0 24.36615,3.48983 36.64246,3.92602 12.21427,0.43385 31.76456,-12.51494 36.64247,-1.30865 2.21593,5.09081 -7.20852,8.62403 -11.77791,11.77791 -7.87367,5.43452 -26.17321,11.77793 -26.17321,11.77793 0,0 19.5783,-2.02861 28.79051,-5.2346 7.0037,-2.43739 13.36533,-6.50082 19.62989,-10.46926 17.90944,-11.34519 34.50943,-24.67432 51.03774,-37.9512 20.25149,-16.26764 40.969,-32.23321 58.88966,-51.03769 16.07448,-16.86719 29.64508,-36.00218 43.18578,-54.9637 10.26629,-14.37624 18.8555,-29.88736 28.79051,-44.49444 2.11038,-3.10281 3.31629,-7.24554 6.54333,-9.16062 12.47009,-7.40031 28.68642,-5.03783 43.18572,-5.23467 14.01896,-0.19054 28.45726,-0.13265 41.87713,3.92602 12.32983,3.72925 24.04954,10.17151 34.02516,18.32124 7.91529,6.46651 14.65591,14.62679 19.6299,23.55583 7.38434,13.25592 12.419,28.14112 14.39521,43.18579 1.87822,14.29884 -0.55916,28.89017 -3.43523,43.02222 -2.86133,14.06074 -8.72002,29.53303 -13.57728,40.73198 -7.42127,17.11058 10.46926,54.96371 10.46926,54.96371 0,0 4.12564,-4.90833 5.2346,-7.85196 2.32716,-6.17742 -2.12652,-15.03954 2.61738,-19.62989 3.15044,-3.04851 9.24716,-3.42483 13.08656,-1.30865 5.12554,2.82506 7.85196,15.70394 7.85196,15.70394 0,0 -1.85133,-22.08728 5.2346,-28.79051 5.10979,-4.83379 20.93861,-2.61737 20.93861,-2.61737 0,0 -12.24511,-44.96654 -13.08664,-68.05027 -0.27188,-7.46195 0.64271,-15.0462 2.61738,-22.24718 3.40884,-12.42986 10.65444,-23.47529 15.70386,-35.33382 4.98242,-11.70126 10.09559,-23.36478 14.39527,-35.33382 4.9444,-13.76358 10.40032,-27.5012 13.08658,-41.87714 2.40902,-12.89251 6.63309,-26.774 2.61737,-39.25977 -2.94137,-9.14537 -10.07961,-17.311 -18.32123,-22.24718 -9.54111,-5.71447 -21.63358,-7.46854 -32.71653,-6.54332 -9.76882,0.81551 -17.74932,9.29758 -27.48186,10.46926 -6.98339,0.84073 -20.93852,-2.61729 -20.93852,-2.61729 z"
       style="fill:#843d00;fill-opacity:1;fill-rule:evenodd;stroke:#000000;stroke-width:3;stroke-linecap:butt;stroke-linejoin:round;stroke-miterlimit:4;stroke-dasharray:none;stroke-opacity:1"
       inkscape:export-xdpi="90"
       inkscape:export-ydpi="90" />
    <path
       sodipodi:nodetypes="cscscsc"
       inkscape:connector-curvature="0"
       id="path4428"
       d="m 333.57034,467.78769 c 0,0 45.01608,-31.59461 68.90478,-45.09985 31.47016,-17.79131 61.77957,-51.25344 61.77957,-51.25344 0,0 -34.41805,48.44611 -47.77189,60.72684 -20.18832,18.56607 -68.66184,45.34271 -68.66184,45.34271 0,0 -8.6554,-0.54671 -11.65956,-3.23875 -1.73193,-1.55189 -2.59106,-6.47751 -2.59106,-6.47751 z"
       style="fill:#a2591a;fill-opacity:1;fill-rule:evenodd;stroke:none;stroke-width:3;stroke-linecap:butt;stroke-linejoin:round;stroke-miterlimit:4;stroke-dasharray:none;stroke-opacity:1"
       inkscape:export-xdpi="90"
       inkscape:export-ydpi="90" />
    <g
       id="g4605"
       style="stroke-width:5;stroke-miterlimit:4;stroke-dasharray:none"
       inkscape:export-xdpi="90"
       inkscape:export-ydpi="90">
      <path
         style="fill:none;fill-rule:evenodd;stroke:#522600;stroke-width:5;stroke-linecap:round;stroke-linejoin:miter;stroke-miterlimit:4;stroke-dasharray:none;stroke-opacity:1"
         d="m 505.75118,378.30054 c -39.65308,46.82549 -79.0773,78.09442 -121.70532,104.69281"
         id="path4229"
         inkscape:connector-curvature="0"
         sodipodi:nodetypes="cc" />
      <path
         sodipodi:nodetypes="cc"
         inkscape:connector-curvature="0"
         id="path4227"
         d="m 485.09142,375.69321 c -44.88776,38.97352 -90.85523,74.16839 -142.64386,88.98887"
         style="fill:none;fill-rule:evenodd;stroke:#522600;stroke-width:5;stroke-linecap:round;stroke-linejoin:miter;stroke-miterlimit:4;stroke-dasharray:none;stroke-opacity:1" />
    </g>
    <path
       sodipodi:nodetypes="csssscssssssssc"
       inkscape:connector-curvature="0"
       id="path4468"
       d="m 521.61509,301.96284 c 0,0 33.22455,-23.13986 56.67836,-32.38769 13.63832,-5.37757 25.04469,-11.22967 35.62653,-21.37589 15.79025,-15.14023 27.95841,-38.28941 49.22922,-43.39949 8.45269,-2.03066 20.53819,-0.81999 25.26243,6.47751 10.35904,16.00154 -9.71635,56.35458 -9.71635,56.35458 0,0 26.51208,-32.66112 31.09217,-52.46806 3.02571,-13.0851 3.03003,-28.76551 -2.91491,-40.80843 -5.27835,-10.69256 -15.26796,-16.8902 -26.55788,-20.72813 -7.79246,-2.64903 -19.30032,-4.71772 -26.55788,-3.23876 -14.23749,2.90135 -21.21606,6.07415 -31.73992,12.30733 -10.27668,6.08675 -20.73832,17.21331 -28.17725,26.55788 -9.56406,12.01404 -13.56586,27.58694 -21.37589,40.80849 -8.95456,15.15899 -17.66718,30.69987 -29.14888,44.04719 -5.88199,6.83777 -21.69975,27.85347 -21.69975,27.85347 z"
       style="display:inline;fill:#a2591a;fill-opacity:1;fill-rule:evenodd;stroke:none;stroke-width:3;stroke-linecap:butt;stroke-linejoin:miter;stroke-miterlimit:4;stroke-dasharray:none;stroke-opacity:1"
       inkscape:export-xdpi="90"
       inkscape:export-ydpi="90" />
    <g
       transform="matrix(7.328494,0,0,7.328494,-3916.5613,-699.3585)"
       id="g4474"
       style="stroke:#532600;stroke-width:0.68226844;stroke-miterlimit:4;stroke-dasharray:none;stroke-opacity:1"
       inkscape:export-xdpi="90"
       inkscape:export-ydpi="90">
      <path
         style="display:inline;fill:none;fill-rule:evenodd;stroke:#532600;stroke-width:0.68226844;stroke-linecap:round;stroke-linejoin:miter;stroke-miterlimit:4;stroke-dasharray:none;stroke-opacity:1"
         d="m 623.62361,132.3622 c 0,0 6.09228,-6.32317 4.64285,-9.55357 -0.49369,-1.10032 -2.32845,-1.33346 -3.48214,-0.98214 -5.49381,1.67297 -11.16071,13.125 -11.16071,13.125"
         id="path4215"
         inkscape:connector-curvature="0"
         sodipodi:nodetypes="cssc" />
      <path
         sodipodi:nodetypes="ccc"
         inkscape:connector-curvature="0"
         id="path4217"
         d="m 629.33789,121.55863 c -0.43242,-2.68096 -2.57058,-4.68801 -6.25,-3.66071 -5.49381,1.67297 -11.16071,13.125 -11.16071,13.125"
         style="display:inline;fill:none;fill-rule:evenodd;stroke:#532600;stroke-width:0.68226844;stroke-linecap:round;stroke-linejoin:miter;stroke-miterlimit:4;stroke-dasharray:none;stroke-opacity:1" />
    </g>
    <path
       sodipodi:nodetypes="cssssssssssc"
       inkscape:connector-curvature="0"
       id="path4501"
       d="m 775.98939,340.87297 c 0,0 15.35372,-50.11964 4.12228,-70.99478 -4.18127,-7.77151 -14.22636,-11.66396 -22.90154,-13.2829 -14.43479,-2.69373 -30.76341,14.15543 -43.51294,6.87046 -5.41561,-3.09445 -8.62658,-11.42013 -6.87045,-17.40517 1.32417,-4.51311 5.68749,-7.94028 10.31719,-7.11098 8.32657,1.49149 14.61185,3.75145 25.08537,0.0293 8.70719,-3.0957 16.33397,-9.77416 25.74455,-9.4059 9.17901,0.3591 20.14676,3.79741 27.25284,9.61865 6.32288,5.17963 11.76685,12.57965 13.28289,20.61139 2.86018,15.15276 -3.30932,31.07794 -9.16061,45.34505 -5.39905,13.16432 -23.35958,35.72641 -23.35958,35.72641 z"
       style="display:inline;fill:#a2591a;fill-opacity:1;fill-rule:evenodd;stroke:none;stroke-width:3;stroke-linecap:butt;stroke-linejoin:miter;stroke-miterlimit:4;stroke-dasharray:none;stroke-opacity:1"
       inkscape:export-xdpi="90"
       inkscape:export-ydpi="90" />
    <g
       transform="matrix(7.328494,0,0,7.328494,-3910.2685,-685.8093)"
       id="g4532"
       style="stroke:#532600;stroke-width:0.68226844;stroke-miterlimit:4;stroke-dasharray:none;stroke-opacity:1"
       inkscape:export-xdpi="90"
       inkscape:export-ydpi="90">
      <path
         sodipodi:nodetypes="cc"
         inkscape:connector-curvature="0"
         id="path4231"
         d="m 626.42085,136.02758 c 1.86411,-2.53131 3.90315,-5.11434 4.29314,-9.21765"
         style="fill:none;fill-rule:evenodd;stroke:#532600;stroke-width:0.68226844;stroke-linecap:round;stroke-linejoin:miter;stroke-miterlimit:4;stroke-dasharray:none;stroke-opacity:1" />
      <g
         id="g4507"
         style="stroke:#532600;stroke-width:0.68226844;stroke-miterlimit:4;stroke-dasharray:none;stroke-opacity:1">
        <path
           sodipodi:nodetypes="cssc"
           inkscape:connector-curvature="0"
           id="path4237"
           d="m 632.19504,130.30863 c 0,0 3.42528,-0.91102 5.08928,-0.53571 1.22489,0.27627 2.69823,0.81957 3.21429,1.96428 1.40367,3.11359 -1.78572,10.08929 -1.78572,10.08929"
           style="fill:none;fill-rule:evenodd;stroke:#532600;stroke-width:0.68226844;stroke-linecap:round;stroke-linejoin:miter;stroke-miterlimit:4;stroke-dasharray:none;stroke-opacity:1" />
        <path
           sodipodi:nodetypes="cssc"
           inkscape:connector-curvature="0"
           id="path4239"
           d="m 629.24861,136.64792 c 0,0 1.21175,-2.30029 2.32143,-2.76786 1.45774,-0.61423 3.77087,-0.89915 4.73214,0.35714 1.73094,2.26219 -1.60714,8.39286 -1.60714,8.39286"
           style="fill:none;fill-rule:evenodd;stroke:#532600;stroke-width:0.68226844;stroke-linecap:round;stroke-linejoin:miter;stroke-miterlimit:4;stroke-dasharray:none;stroke-opacity:1" />
      </g>
    </g>
  </g>
</svg>
